<svg width="49.225098" height="17.228760" viewBox="0 0 49.2251 17.2288" fill="none" xmlns="http://www.w3.org/2000/svg" xmlns:xlink="http://www.w3.org/1999/xlink">
	<desc>
			Created with Pixso.
	</desc>
	<defs/>
	<rect id="Rectangle 24" rx="8.614369" width="49.224976" height="17.228760" fill="#080809" fill-opacity="1.000000"/>
	<path id="Vector" d="M10.72 11.81C9.55 11.8 8.58 9.41 8.58 8.19C8.58 6.2 10.07 5.76 10.65 5.76C10.91 5.76 11.18 5.87 11.43 5.96C11.6 6.02 11.78 6.08 11.87 6.08C11.93 6.08 12.07 6.03 12.19 5.98C12.45 5.88 12.78 5.75 13.16 5.75C13.16 5.75 13.16 5.75 13.16 5.75C13.44 5.75 14.3 5.81 14.81 6.58L14.93 6.76L14.76 6.89C14.51 7.08 14.06 7.42 14.06 8.1C14.06 8.9 14.57 9.21 14.82 9.36C14.93 9.42 15.04 9.49 15.04 9.64C15.04 9.73 14.27 11.8 13.16 11.8C12.88 11.8 12.69 11.72 12.52 11.64C12.35 11.57 12.2 11.51 11.95 11.51C11.83 11.51 11.67 11.57 11.51 11.63C11.28 11.71 11.02 11.81 10.73 11.81L10.72 11.81Z" fill="#FFFFFF" fill-opacity="1.000000" fill-rule="nonzero"/>
	<path id="Vector" d="M13.28 3.93C13.3 4.98 12.56 5.71 11.81 5.66C11.68 4.83 12.56 3.93 13.28 3.93Z" fill="#FFFFFF" fill-opacity="1.000000" fill-rule="nonzero"/>
	<path id="Vector" d="M23.21 6.39L23.65 6.39L23.65 4.24L23.21 4.24L23.21 6.39ZM26.58 6.39L27.02 6.39L27.02 4.24L26.58 4.24L26.58 6.39ZM24.19 4.79C24.34 4.79 24.46 4.67 24.46 4.52C24.46 4.38 24.34 4.26 24.19 4.26C24.05 4.26 23.93 4.38 23.93 4.52C23.93 4.67 24.05 4.79 24.19 4.79ZM19.21 6.39L19.72 6.39L19.02 4.33L18.42 4.33L17.72 6.39L18.23 6.39L18.34 6.07L19.1 6.07L19.21 6.39ZM25.62 4.88C25.43 4.88 25.28 4.94 25.18 5.06L25.18 4.33L24.74 4.33L24.74 6.39L25.18 6.39L25.18 6.26C25.28 6.37 25.43 6.44 25.62 6.44C26.01 6.44 26.33 6.1 26.33 5.66C26.33 5.22 26.01 4.88 25.62 4.88ZM35.98 4.88C35.79 4.88 35.64 4.95 35.56 5.06L35.56 4.33L35.12 4.33L35.12 6.39L35.56 6.39L35.56 5.59C35.56 5.38 35.67 5.28 35.84 5.28C35.98 5.28 36.09 5.37 36.09 5.55L36.09 6.39L36.54 6.39L36.54 5.49C36.54 5.09 36.28 4.88 35.98 4.88ZM34.87 5.34L34.87 4.92L34.56 4.92L34.56 4.5L34.12 4.64L34.12 4.92L33.88 4.92L33.88 5.34L34.12 5.34L34.12 5.87C34.12 6.28 34.29 6.45 34.87 6.39L34.87 5.99C34.67 6 34.56 5.99 34.56 5.87L34.56 5.34L34.87 5.34ZM18.48 5.63L18.72 4.87L18.96 5.63L18.48 5.63ZM22.44 4.92L22.44 5.06C22.34 4.94 22.2 4.88 22 4.88C21.61 4.88 21.29 5.22 21.29 5.66C21.29 6.1 21.61 6.44 22 6.44C22.2 6.44 22.34 6.37 22.44 6.26L22.44 6.39L22.88 6.39L22.88 4.92L22.44 4.92ZM27.74 5.83L28.79 5.83C28.8 5.78 28.81 5.72 28.81 5.66C28.81 5.21 28.49 4.88 28.06 4.88C27.59 4.88 27.27 5.22 27.27 5.66C27.27 6.1 27.59 6.44 28.09 6.44C28.37 6.44 28.59 6.33 28.74 6.13L28.38 5.93C28.32 5.99 28.22 6.04 28.1 6.04C27.94 6.04 27.8 5.99 27.74 5.83ZM30.51 6.44C30.94 6.44 31.29 6.1 31.29 5.66C31.29 5.22 30.94 4.88 30.51 4.88C30.07 4.88 29.73 5.22 29.73 5.66C29.73 6.1 30.07 6.44 30.51 6.44ZM32.41 4.88C32.21 4.88 32.06 4.95 31.98 5.06L31.98 4.92L31.54 4.92L31.54 6.39L31.98 6.39L31.98 5.59C31.98 5.38 32.1 5.28 32.26 5.28C32.4 5.28 32.52 5.37 32.52 5.55L32.52 6.39L32.96 6.39L32.96 5.49C32.96 5.09 32.71 4.88 32.41 4.88ZM37.24 5.83L38.28 5.83C38.3 5.78 38.3 5.72 38.3 5.66C38.3 5.21 37.98 4.88 37.55 4.88C37.09 4.88 36.77 5.22 36.77 5.66C36.77 6.1 37.08 6.44 37.58 6.44C37.86 6.44 38.08 6.33 38.23 6.13L37.87 5.93C37.81 5.99 37.71 6.04 37.59 6.04C37.43 6.04 37.29 5.99 37.24 5.83ZM20.77 4.92L20.46 5.85L20.16 4.92L19.67 4.92L20.21 6.39L20.71 6.39L21.26 4.92L20.77 4.92ZM23.97 6.39L24.42 6.39L24.42 4.92L23.97 4.92L23.97 6.39ZM27.73 5.5C27.78 5.35 27.89 5.27 28.06 5.27C28.19 5.27 28.32 5.33 28.37 5.5L27.73 5.5ZM37.23 5.5C37.27 5.35 37.38 5.27 37.55 5.27C37.68 5.27 37.81 5.33 37.86 5.5L37.23 5.5ZM22.09 6.02C21.88 6.02 21.74 5.88 21.74 5.66C21.74 5.43 21.88 5.3 22.09 5.3C22.29 5.3 22.44 5.43 22.44 5.66C22.44 5.88 22.29 6.02 22.09 6.02ZM25.53 6.02C25.33 6.02 25.18 5.88 25.18 5.66C25.18 5.43 25.33 5.3 25.53 5.3C25.74 5.3 25.89 5.43 25.89 5.66C25.89 5.88 25.74 6.02 25.53 6.02ZM30.51 6C30.32 6 30.17 5.87 30.17 5.66C30.17 5.45 30.32 5.31 30.51 5.31C30.7 5.31 30.85 5.45 30.85 5.66C30.85 5.87 30.7 6 30.51 6ZM27.47 11.81L28.21 11.81L28.21 8.22L27.47 8.22L27.47 11.81ZM34.06 11.88C34.81 11.88 35.34 11.48 35.34 10.82C35.34 10.09 34.76 9.91 34.23 9.75C33.7 9.59 33.61 9.48 33.61 9.32C33.61 9.18 33.74 9.06 33.98 9.06C34.3 9.06 34.46 9.21 34.58 9.46L35.24 9.07C34.99 8.56 34.55 8.29 33.98 8.29C33.39 8.29 32.83 8.68 32.83 9.34C32.83 10 33.33 10.25 33.84 10.39C34.36 10.53 34.55 10.62 34.55 10.83C34.55 10.96 34.46 11.11 34.09 11.11C33.7 11.11 33.49 10.92 33.36 10.63L32.68 11.03C32.88 11.53 33.34 11.88 34.06 11.88ZM20.2 11.81L21.06 11.81L19.89 8.36L18.89 8.36L17.72 11.81L18.58 11.81L18.75 11.27L20.03 11.27L20.2 11.81ZM37.08 10.06L37.08 9.35L36.57 9.35L36.57 8.66L35.84 8.88L35.84 9.35L35.44 9.35L35.44 10.06L35.84 10.06L35.84 10.93C35.84 11.62 36.12 11.91 37.08 11.81L37.08 11.14C36.76 11.16 36.57 11.14 36.57 10.93L36.57 10.06L37.08 10.06ZM18.99 10.53L19.39 9.26L19.79 10.53L18.99 10.53ZM22.8 9.28C22.47 9.28 22.23 9.39 22.07 9.58L22.07 9.35L21.33 9.35L21.33 12.79L22.07 12.79L22.07 11.58C22.23 11.76 22.47 11.88 22.8 11.88C23.45 11.88 23.98 11.31 23.98 10.58C23.98 9.84 23.45 9.28 22.8 9.28ZM25.87 9.28C25.54 9.28 25.3 9.39 25.14 9.58L25.14 9.35L24.4 9.35L24.4 12.79L25.14 12.79L25.14 11.58C25.3 11.76 25.54 11.88 25.87 11.88C26.52 11.88 27.05 11.31 27.05 10.58C27.05 9.84 26.52 9.28 25.87 9.28ZM29.4 10.87L31.15 10.87C31.17 10.78 31.18 10.68 31.18 10.58C31.18 9.83 30.65 9.28 29.93 9.28C29.15 9.28 28.62 9.84 28.62 10.58C28.62 11.31 29.14 11.88 29.99 11.88C30.45 11.88 30.82 11.71 31.06 11.37L30.47 11.03C30.37 11.14 30.2 11.22 30 11.22C29.72 11.22 29.5 11.13 29.4 10.87ZM38.63 11.88C39.36 11.88 39.94 11.31 39.94 10.58C39.94 9.84 39.36 9.28 38.63 9.28C37.91 9.28 37.33 9.84 37.33 10.58C37.33 11.31 37.91 11.88 38.63 11.88ZM42.76 10.87L44.51 10.87C44.53 10.78 44.54 10.68 44.54 10.58C44.54 9.83 44.01 9.28 43.29 9.28C42.51 9.28 41.98 9.84 41.98 10.58C41.98 11.31 42.5 11.88 43.34 11.88C43.81 11.88 44.18 11.71 44.42 11.37L43.83 11.03C43.73 11.14 43.56 11.22 43.35 11.22C43.08 11.22 42.86 11.13 42.76 10.87ZM41.09 9.79L41.09 9.35L40.35 9.35L40.35 11.81L41.09 11.81L41.09 10.7C41.09 10.21 41.53 10.09 41.83 10.14L41.83 9.3C41.52 9.3 41.19 9.46 41.09 9.79ZM29.39 10.32C29.46 10.07 29.65 9.93 29.93 9.93C30.15 9.93 30.37 10.04 30.45 10.32L29.39 10.32ZM42.75 10.32C42.82 10.07 43.01 9.93 43.29 9.93C43.51 9.93 43.73 10.04 43.81 10.32L42.75 10.32ZM22.66 11.18C22.32 11.18 22.07 10.95 22.07 10.58C22.07 10.21 22.32 9.98 22.66 9.98C23 9.98 23.24 10.21 23.24 10.58C23.24 10.95 23 11.18 22.66 11.18ZM25.72 11.18C25.38 11.18 25.14 10.95 25.14 10.58C25.14 10.21 25.38 9.98 25.72 9.98C26.06 9.98 26.31 10.21 26.31 10.58C26.31 10.95 26.06 11.18 25.72 11.18ZM38.63 11.16C38.31 11.16 38.07 10.93 38.07 10.58C38.07 10.23 38.31 10 38.63 10C38.95 10 39.2 10.23 39.2 10.58C39.2 10.93 38.95 11.16 38.63 11.16Z" fill="#FFFFFF" fill-opacity="1.000000" fill-rule="evenodd"/>
</svg>
