<svg width="52.670654" height="17.228760" viewBox="0 0 52.6707 17.2288" fill="none" xmlns="http://www.w3.org/2000/svg" xmlns:xlink="http://www.w3.org/1999/xlink">
	<desc>
			Created with Pixso.
	</desc>
	<defs>
		<clipPath id="clip189_500">
			<rect id="google-play 1" width="9.845032" height="9.844971" transform="translate(8.368164 3.445801)" fill="white" fill-opacity="0"/>
		</clipPath>
	</defs>
	<rect id="Rectangle 23" rx="8.614369" width="52.670685" height="17.228760" fill="#080809" fill-opacity="1.000000"/>
	<rect id="google-play 1" width="9.845032" height="9.844971" transform="translate(8.368164 3.445801)" fill="#FFFFFF" fill-opacity="0"/>
	<g clip-path="url(#clip189_500)">
		<path id="Vector" d="M14.03 8.36L9.08 13.12C8.85 12.97 8.71 12.7 8.72 12.42L8.72 4.31C8.71 4.03 8.85 3.76 9.08 3.6L14.03 8.36Z" fill="#2196F3" fill-opacity="1.000000" fill-rule="nonzero"/>
		<path id="Vector" d="M15.76 6.7L14.03 8.36L9.08 3.6C9.1 3.59 9.12 3.58 9.14 3.56C9.4 3.4 9.73 3.4 10 3.55L15.76 6.7Z" fill="#4CAF50" fill-opacity="1.000000" fill-rule="nonzero"/>
		<path id="Vector" d="M17.85 8.36C17.86 8.68 17.69 8.97 17.41 9.12L15.76 10.03L14.03 8.36L15.76 6.7L17.41 7.6C17.69 7.76 17.86 8.05 17.85 8.36Z" fill="#F0BB1F" fill-opacity="1.000000" fill-rule="nonzero"/>
		<path id="Vector" d="M15.76 10.03L10 13.18C9.73 13.33 9.4 13.32 9.14 13.17C9.12 13.15 9.1 13.14 9.08 13.13L14.03 8.36L15.76 10.03Z" fill="#F15A2B" fill-opacity="1.000000" fill-rule="nonzero"/>
	</g>
	<path id="Vector" d="M23.63 5.84L22.25 5.84L22.25 6.39L22.99 6.39C22.89 6.66 22.65 6.82 22.28 6.82C21.75 6.82 21.42 6.48 21.42 6.01C21.42 5.52 21.76 5.18 22.23 5.18C22.54 5.18 22.79 5.32 22.9 5.5L23.44 5.2C23.21 4.83 22.76 4.57 22.23 4.57C21.42 4.57 20.79 5.21 20.79 6C20.79 6.8 21.41 7.43 22.28 7.43C23.05 7.43 23.63 6.92 23.63 6.08L23.63 5.84ZM33.34 7.43C34.13 7.43 34.77 6.81 34.77 6C34.77 5.19 34.13 4.57 33.34 4.57C32.55 4.57 31.91 5.19 31.91 6C31.91 6.81 32.55 7.43 33.34 7.43ZM24.42 6.77L24.42 6.28L25.41 6.28L25.41 5.69L24.42 5.69L24.42 5.23L26.2 5.23L26.2 7.38L26.83 7.38L26.83 5.23L27.54 5.23L27.54 4.62L23.79 4.62L23.79 7.38L25.53 7.38L25.53 6.77L24.42 6.77ZM28.4 4.62L28.4 7.38L29.03 7.38L29.03 4.62L28.4 4.62ZM31.16 4.62L29.11 4.62L29.11 5.23L29.82 5.23L29.82 7.38L30.45 7.38L30.45 5.23L31.16 5.23L31.16 4.62ZM36.47 4.62L36.47 6.12L35.41 4.62L34.93 4.62L34.93 7.38L35.56 7.38L35.56 5.88L36.63 7.38L37.1 7.38L37.1 4.62L36.47 4.62ZM33.34 6.82C32.89 6.82 32.54 6.49 32.54 6C32.54 5.51 32.89 5.18 33.34 5.18C33.79 5.18 34.14 5.51 34.14 6C34.14 6.49 33.79 6.82 33.34 6.82ZM23.63 10.63L23.63 10.53L22.25 10.53L22.25 10.72L23.42 10.72C23.4 10.99 23.29 11.21 23.09 11.39Q23.05 11.42 23 11.46L23 11.46Q22.72 11.65 22.3 11.65Q21.93 11.65 21.66 11.49Q21.52 11.42 21.41 11.3Q21.26 11.15 21.18 10.97Q21.06 10.72 21.06 10.43Q21.06 10.13 21.18 9.88Q21.27 9.71 21.41 9.56Q21.54 9.43 21.69 9.35Q21.95 9.21 22.29 9.21Q22.49 9.21 22.68 9.27Q22.78 9.31 22.88 9.37Q23.07 9.48 23.2 9.64Q23.25 9.71 23.29 9.79L23.47 9.67C23.36 9.47 23.19 9.31 22.98 9.19Q22.87 9.13 22.75 9.09Q22.53 9.01 22.29 9.01Q21.9 9.01 21.6 9.17Q21.41 9.27 21.26 9.42Q21.08 9.6 20.98 9.81Q20.85 10.09 20.85 10.43Q20.85 10.76 20.98 11.03Q21.08 11.26 21.26 11.44Q21.41 11.59 21.59 11.68Q21.9 11.85 22.3 11.85Q22.77 11.85 23.1 11.64Q23.19 11.58 23.27 11.5Q23.44 11.33 23.54 11.12Q23.63 10.9 23.63 10.63ZM26 11.74Q26.24 11.63 26.43 11.44Q26.63 11.23 26.74 10.99Q26.84 10.73 26.84 10.43Q26.84 10.13 26.73 9.87Q26.63 9.63 26.43 9.43Q26.23 9.23 25.99 9.12Q25.73 9.01 25.42 9.01C25.03 9.01 24.69 9.15 24.41 9.43Q24.21 9.63 24.11 9.87Q24 10.13 24 10.43Q24 10.73 24.11 10.99Q24.21 11.23 24.41 11.44C24.69 11.71 25.03 11.85 25.42 11.85Q25.74 11.85 26 11.74ZM28.64 11.85C29.03 11.85 29.37 11.71 29.65 11.44Q29.85 11.23 29.95 10.99Q30.06 10.73 30.06 10.43Q30.06 10.13 29.95 9.87Q29.84 9.63 29.65 9.43C29.37 9.15 29.03 9.01 28.64 9.01Q28.33 9.01 28.07 9.12Q27.83 9.23 27.63 9.43Q27.43 9.63 27.33 9.87Q27.22 10.13 27.22 10.43Q27.22 10.73 27.32 10.99Q27.43 11.23 27.63 11.44Q27.82 11.63 28.06 11.74Q28.32 11.85 28.64 11.85ZM33.21 10.63L33.21 10.53L31.83 10.53L31.83 10.72L33 10.72C32.97 10.99 32.86 11.21 32.66 11.39C32.46 11.56 32.2 11.65 31.88 11.65Q31.51 11.65 31.23 11.49Q31.1 11.42 30.99 11.3Q30.84 11.15 30.75 10.97Q30.64 10.72 30.64 10.43Q30.64 10.13 30.76 9.88Q30.84 9.71 30.98 9.56C31.21 9.33 31.51 9.21 31.86 9.21Q32.07 9.21 32.25 9.27L32.25 9.27Q32.36 9.31 32.45 9.37C32.64 9.47 32.77 9.61 32.86 9.79L33.05 9.67C32.93 9.47 32.77 9.31 32.56 9.19Q32.45 9.13 32.33 9.09Q32.11 9.01 31.86 9.01Q31.48 9.01 31.18 9.17Q30.99 9.27 30.84 9.42Q30.66 9.6 30.56 9.81Q30.43 10.09 30.43 10.43Q30.43 10.76 30.55 11.03Q30.66 11.26 30.84 11.44Q30.99 11.59 31.16 11.68Q31.48 11.85 31.88 11.85C32.28 11.85 32.6 11.74 32.84 11.5Q33.02 11.33 33.11 11.12Q33.21 10.9 33.21 10.63ZM35.24 11.61L33.94 11.61L33.94 9.05L33.73 9.05L33.73 11.81L35.24 11.81L35.24 11.61ZM37.26 11.61L35.88 11.61L35.88 10.52L37.14 10.52L37.14 10.32L35.88 10.32L35.88 9.25L37.24 9.25L37.24 9.05L35.68 9.05L35.68 11.81L37.26 11.81L37.26 11.61ZM40.38 9.3C40.21 9.13 40.01 9.05 39.76 9.05L38.83 9.05L38.83 11.81L39.03 11.81L39.03 10.76L39.76 10.76C40.01 10.76 40.21 10.68 40.38 10.52Q40.47 10.42 40.53 10.3Q40.62 10.13 40.62 9.91Q40.62 9.69 40.53 9.51Q40.47 9.39 40.38 9.3ZM42.64 11.61L41.35 11.61L41.35 9.05L41.14 9.05L41.14 11.81L42.64 11.81L42.64 11.61ZM44.74 11.11L45.01 11.81L45.23 11.81L44.16 9.05L43.94 9.05L42.87 11.81L43.09 11.81L43.36 11.11L44.74 11.11ZM46.19 10.68L47.19 9.05L46.96 9.05L46.09 10.47L45.21 9.05L44.98 9.05L45.98 10.68L45.98 11.81L46.19 11.81L46.19 10.68ZM24.93 11.55Q24.73 11.47 24.56 11.3Q24.39 11.13 24.31 10.92Q24.21 10.7 24.21 10.43C24.21 10.09 24.33 9.8 24.56 9.57Q24.73 9.39 24.94 9.3Q25.16 9.21 25.42 9.21Q25.69 9.21 25.91 9.31Q26.11 9.4 26.28 9.57C26.52 9.8 26.63 10.09 26.63 10.43Q26.63 10.69 26.54 10.91Q26.45 11.12 26.28 11.3Q26.12 11.46 25.92 11.55Q25.69 11.65 25.42 11.65Q25.16 11.65 24.93 11.55ZM28.15 11.55L28.15 11.55Q27.94 11.47 27.77 11.3Q27.61 11.13 27.52 10.92Q27.42 10.7 27.42 10.43C27.42 10.09 27.54 9.8 27.77 9.57Q27.95 9.39 28.16 9.3Q28.38 9.21 28.64 9.21Q28.9 9.21 29.12 9.31Q29.33 9.4 29.5 9.57C29.73 9.8 29.85 10.09 29.85 10.43C29.85 10.77 29.73 11.06 29.5 11.3Q29.33 11.46 29.13 11.55Q28.91 11.65 28.64 11.65Q28.37 11.65 28.15 11.55ZM40.23 10.38C40.11 10.5 39.95 10.56 39.76 10.56L39.03 10.56L39.03 9.25L39.76 9.25C39.95 9.25 40.11 9.31 40.23 9.43C40.35 9.56 40.41 9.72 40.41 9.91C40.41 10.1 40.35 10.25 40.23 10.38ZM44.67 10.91L43.44 10.91L44.05 9.31L44.67 10.91Z" fill="#FFFFFF" fill-opacity="1.000000" fill-rule="evenodd"/>
</svg>
