<svg width="61.000000" height="61.000000" viewBox="0 0 61 61" fill="none" xmlns="http://www.w3.org/2000/svg" xmlns:xlink="http://www.w3.org/1999/xlink">
	<desc>
			Created with Pixso.
	</desc>
	<defs>
		<filter id="filter_1_504_dd" x="0.000000" y="0.000000" width="61.000000" height="61.000000" filterUnits="userSpaceOnUse" color-interpolation-filters="sRGB">
			<feFlood flood-opacity="0" result="BackgroundImageFix"/>
			<feColorMatrix in="SourceAlpha" type="matrix" values="0 0 0 0 0 0 0 0 0 0 0 0 0 0 0 0 0 0 127 0" result="hardAlpha"/>
			<feOffset dx="0" dy="2"/>
			<feGaussianBlur stdDeviation="3.33333"/>
			<feComposite in2="hardAlpha" operator="out" k2="-1" k3="1"/>
			<feColorMatrix type="matrix" values="0 0 0 0 0 0 0 0 0 0 0 0 0 0 0 0 0 0 0.1 0"/>
			<feBlend mode="normal" in2="BackgroundImageFix" result="effect_dropShadow_1"/>
			<feBlend mode="normal" in="SourceGraphic" in2="effect_dropShadow_1" result="shape"/>
		</filter>
	</defs>
	<g filter="url(#filter_1_504_dd)">
		<path id="Background" d="M30.5 49C41.82 49 51 39.82 51 28.5C51 17.17 41.82 8 30.5 8C19.17 8 10 17.17 10 28.5C10 39.82 19.17 49 30.5 49Z" fill="#FFFFFF" fill-opacity="1.000000" fill-rule="evenodd"/>
	</g>
	<path id="Vector" d="M38 23.53C37.4 23.8 36.77 23.97 36.11 24.05C36.79 23.65 37.3 23.01 37.55 22.24C36.91 22.62 36.21 22.88 35.47 23.03C34.87 22.39 34.01 22 33.07 22C31.26 22 29.79 23.47 29.79 25.28C29.79 25.54 29.82 25.79 29.87 26.02C27.14 25.89 24.73 24.58 23.11 22.59C22.83 23.08 22.66 23.65 22.66 24.25C22.66 25.39 23.25 26.39 24.12 26.98C23.59 26.97 23.07 26.81 22.63 26.57C22.63 26.58 22.63 26.6 22.63 26.61C22.63 28.2 23.77 29.53 25.26 29.83C25 29.9 24.71 29.94 24.4 29.94C24.19 29.94 23.98 29.93 23.78 29.88C24.21 31.18 25.41 32.14 26.85 32.17C25.73 33.04 24.31 33.57 22.78 33.57C22.51 33.57 22.25 33.56 22 33.52C23.45 34.46 25.17 35 27.03 35C33.06 35 36.36 30 36.36 25.66C36.36 25.52 36.36 25.38 36.35 25.24C37 24.78 37.55 24.2 38 23.53Z" fill="#080809" fill-opacity="1.000000" fill-rule="nonzero"/>
</svg>
