<svg width="61.000000" height="61.000000" viewBox="0 0 61 61" fill="none" xmlns="http://www.w3.org/2000/svg" xmlns:xlink="http://www.w3.org/1999/xlink">
	<desc>
			Created with Pixso.
	</desc>
	<defs>
		<filter id="filter_1_503_dd" x="0.000000" y="0.000000" width="61.000000" height="61.000000" filterUnits="userSpaceOnUse" color-interpolation-filters="sRGB">
			<feFlood flood-opacity="0" result="BackgroundImageFix"/>
			<feColorMatrix in="SourceAlpha" type="matrix" values="0 0 0 0 0 0 0 0 0 0 0 0 0 0 0 0 0 0 127 0" result="hardAlpha"/>
			<feOffset dx="0" dy="2"/>
			<feGaussianBlur stdDeviation="3.33333"/>
			<feComposite in2="hardAlpha" operator="out" k2="-1" k3="1"/>
			<feColorMatrix type="matrix" values="0 0 0 0 0 0 0 0 0 0 0 0 0 0 0 0 0 0 0.1 0"/>
			<feBlend mode="normal" in2="BackgroundImageFix" result="effect_dropShadow_1"/>
			<feBlend mode="normal" in="SourceGraphic" in2="effect_dropShadow_1" result="shape"/>
		</filter>
	</defs>
	<g filter="url(#filter_1_503_dd)">
		<path id="Background" d="M30.5 49C41.82 49 51 39.82 51 28.5C51 17.17 41.82 8 30.5 8C19.17 8 10 17.17 10 28.5C10 39.82 19.17 49 30.5 49Z" fill="#FFFFFF" fill-opacity="1.000000" fill-rule="evenodd"/>
	</g>
	<path id="Facebook Icon" d="M33.1 26.24C32.78 26.14 32.42 26.07 32.08 26.07C31.66 26.07 30.77 26.36 30.77 26.91L30.77 28.25L32.9 28.25L32.9 30.49L30.77 30.49L30.77 36.69L28.62 36.69L28.62 30.49L27.57 30.49L27.57 28.25L28.62 28.25L28.62 27.12C28.62 25.41 29.36 24 31.14 24C31.74 24 32.83 24.03 33.42 24.25L33.1 26.24Z" fill="#080809" fill-opacity="1.000000" fill-rule="evenodd"/>
</svg>
