<svg width="7.875977" height="7.875977" viewBox="0 0 7.87598 7.87598" fill="none" xmlns="http://www.w3.org/2000/svg" xmlns:xlink="http://www.w3.org/1999/xlink">
	<desc>
			Created with Pixso.
	</desc>
	<defs>
		<clipPath id="clip189_491">
			<rect id="instagram 1" width="7.875977" height="7.875977" fill="white" fill-opacity="0"/>
		</clipPath>
	</defs>
	<g clip-path="url(#clip189_491)">
		<path id="Vector" d="M6.72 0L1.15 0C0.51 0 0 0.51 0 1.15L0 6.72C0 7.35 0.51 7.87 1.15 7.87L6.72 7.87C7.35 7.87 7.87 7.35 7.87 6.72L7.87 1.15C7.87 0.51 7.35 0 6.72 0ZM7.41 6.72C7.41 7.1 7.1 7.41 6.72 7.41L1.15 7.41C0.77 7.41 0.46 7.1 0.46 6.72L0.46 1.15C0.46 0.77 0.77 0.46 1.15 0.46L6.72 0.46C7.1 0.46 7.41 0.77 7.41 1.15L7.41 6.72Z" fill="#FFFFFF" fill-opacity="1.000000" fill-rule="nonzero"/>
		<path id="Vector" d="M6.47 0.93C6.22 0.93 6.01 1.14 6.01 1.39C6.01 1.65 6.22 1.86 6.47 1.86C6.73 1.86 6.93 1.65 6.93 1.39C6.93 1.14 6.73 0.93 6.47 0.93Z" fill="#FFFFFF" fill-opacity="1.000000" fill-rule="nonzero"/>
		<path id="Vector" d="M3.93 1.86C2.79 1.86 1.86 2.79 1.86 3.93C1.86 5.08 2.79 6.01 3.93 6.01C5.08 6.01 6.01 5.08 6.01 3.93C6.01 2.79 5.08 1.86 3.93 1.86ZM3.93 5.55C3.04 5.55 2.32 4.82 2.32 3.93C2.32 3.04 3.04 2.32 3.93 2.32C4.82 2.32 5.55 3.04 5.55 3.93C5.55 4.82 4.82 5.55 3.93 5.55Z" fill="#FFFFFF" fill-opacity="1.000000" fill-rule="nonzero"/>
	</g>
</svg>
