<svg width="97.123535" height="253.063477" viewBox="0 0 97.1235 253.063" fill="none" xmlns="http://www.w3.org/2000/svg" xmlns:xlink="http://www.w3.org/1999/xlink">
	<desc>
			Created with Pixso.
	</desc>
	<defs/>
	<path id="Decore" d="M8.48 13.77C15.51 5.25 33.27 -7.84 48.13 7.91C62.99 23.67 42.94 53.15 31.07 65.93C25.21 69.48 13 75.51 10.99 71.25C8.48 65.93 6.97 54.75 27.55 45.17C40.77 39.49 69.31 33.46 77.74 54.75C81.59 63.98 82.26 85.41 54.15 97.33L19.02 112.77M29.06 178.24C39.1 186.33 60.68 187.64 70.22 187.29C95.91 183.03 94.64 161.74 90.79 151.63C83.57 134.17 46.63 126.61 29.06 125.01L28.05 87.22C32.87 85.52 52.15 84.38 61.18 84.03C98.52 86.16 98.16 111.53 93.3 123.95C83.27 141.41 46.29 142.58 29.06 140.98L29.06 160.67C33.74 162.98 49.03 167.06 72.73 164.93C96.42 162.8 97.99 140.98 95.81 130.33C83.27 109.58 76.99 112.77 61.18 109.04C48.53 106.06 27.8 110.29 19.02 112.77C5.64 113.31 -13.6 106.92 16.51 77.11C26.05 72.49 49.13 63.16 65.2 62.74C74.4 64.69 92.1 74.34 89.29 97.33C89.62 101.95 83.37 113.41 55.66 122.35C49.3 123.77 35.08 126.72 29.06 127.14L7.48 130.33L19.02 112.77M29.06 178.24C41.1 186.76 65.7 207.41 67.71 221.89C68.54 230.76 66.3 249.25 50.64 252.23C46.63 252.94 36.69 252.86 29.06 246.9L31.07 199L29.06 178.24L29.06 140.98M29.06 140.98C39.93 143.64 63.89 150.99 72.73 159.08C83.43 167.95 99.13 189.95 76.24 206.98C69.04 209.64 49.94 211.77 31.07 199" stroke="#84829A" stroke-opacity="1.000000" stroke-width="1.000000"/>
</svg>
