<svg width="16.250244" height="16.250488" viewBox="0 0 16.2502 16.2505" fill="none" xmlns="http://www.w3.org/2000/svg" xmlns:xlink="http://www.w3.org/1999/xlink">
	<desc>
			Created with Pixso.
	</desc>
	<defs/>
	<path id="Vector" d="M16.19 0.88L9.31 15.88C9.26 16.01 9.16 16.11 9.04 16.17C8.91 16.24 8.77 16.26 8.64 16.24C8.5 16.21 8.38 16.14 8.28 16.04C8.19 15.94 8.13 15.81 8.12 15.67L7.54 8.7L0.57 8.12C0.43 8.11 0.3 8.05 0.2 7.96C0.1 7.86 0.03 7.74 0 7.6C-0.02 7.47 0 7.33 0.07 7.2C0.13 7.08 0.23 6.98 0.36 6.93L15.36 0.05C15.48 0 15.61 -0.02 15.73 0C15.86 0.03 15.97 0.09 16.06 0.18C16.15 0.27 16.21 0.38 16.24 0.51C16.26 0.64 16.24 0.76 16.19 0.88L16.19 0.88Z" fill="#080809" fill-opacity="1.000000" fill-rule="nonzero"/>
</svg>
