<svg width="385.000000" height="12.000000" viewBox="0 0 385 12" fill="none" xmlns="http://www.w3.org/2000/svg" xmlns:xlink="http://www.w3.org/1999/xlink">
	<desc>
			Created with Pixso.
	</desc>
	<defs/>
	<mask id="mask1_122" mask-type="alpha" maskUnits="userSpaceOnUse" x="0.000000" y="0.000000" width="385.000000" height="12.000000">
		<rect id="Rectangle 36" width="385.000000" height="12.000000" fill="#C4C4C4" fill-opacity="1.000000"/>
	</mask>
	<g mask="url(#mask1_122)">
		<path id="Vector" d="M57.82 -2.54L58.76 -2.7L56.93 -2.93L57.81 -3.09C58.69 -3.09 59.83 -2.84 60.45 -2.98C60.53 -3.1 59.57 -3.14 59.32 -3.25C59.11 -3.35 58.93 -3.46 58.8 -3.56C59.28 -3.56 59.8 -3.53 60.35 -3.48C61.08 -3.41 61.79 -3.37 62.42 -3.38C63.69 -3.36 64.93 -3.38 66.31 -3.37L65.85 -3.68L67.64 -3.61C67.83 -3.59 68.05 -3.62 68.24 -3.59C69.79 -3.35 70.44 -3.48 71.19 -3.59C71.34 -3.62 71.52 -3.64 71.73 -3.66C73.8 -3.6 75.66 -3.25 77.52 -3.08C77.87 -3.03 78.21 -2.97 78.51 -2.91C79.15 -2.78 79.87 -2.67 80.6 -2.6C81.33 -2.53 82.04 -2.49 82.67 -2.49C84.06 -2.5 85.63 -2.41 87.23 -2.25C87.71 -2.19 88.18 -2.15 88.63 -2.14C89.07 -2.12 89.48 -2.13 89.82 -2.16L90.9 -1.98C91.37 -2.05 91.97 -2.09 92.65 -2.1C93.34 -2.1 94.1 -2.07 94.88 -2.01C95.72 -1.94 96.58 -1.89 97.45 -1.82C99.25 -1.68 101.01 -1.6 102.66 -1.57C105.11 -1.49 107.52 -1.42 110 -1.32C111.55 -1.27 113.06 -1.24 114.52 -1.24C116.27 -1.22 118.17 -1.12 120.12 -0.96C120.02 -0.8 119.17 -0.85 118.6 -0.85C116.75 -0.88 114.86 -0.94 112.96 -0.99C112.1 -1.01 111.27 -1.02 110.46 -1.02C109.12 -1.02 107.7 -1.06 106.23 -1.14C103.91 -1.22 101.67 -1.26 99.52 -1.26C99.36 -1.25 99.2 -1.24 99.06 -1.23C99.04 -1.21 99.03 -1.2 99.05 -1.18C99.07 -1.16 99.11 -1.14 99.17 -1.12C99.23 -1.1 99.3 -1.08 99.39 -1.07C99.48 -1.05 99.57 -1.04 99.66 -1.03C100.51 -0.93 101.43 -0.82 102.23 -0.8C102.26 -0.8 102.3 -0.8 102.33 -0.79C102.36 -0.79 102.39 -0.78 102.42 -0.78C104.22 -0.55 105.7 -0.59 107.1 -0.55C109.43 -0.46 111.67 -0.41 113.8 -0.42C114.12 -0.42 114.47 -0.4 114.83 -0.38C117.05 -0.28 119.14 -0.27 120.98 -0.35C121.73 -0.37 122.44 -0.41 123.25 -0.41C123.75 -0.41 124.19 -0.44 124.53 -0.49C124.88 -0.55 125.13 -0.62 125.26 -0.71C125.6 -0.66 125.95 -0.62 126.3 -0.58C126.51 -0.56 126.71 -0.56 126.86 -0.57C127.01 -0.58 127.1 -0.61 127.12 -0.64C127.18 -0.75 126.7 -0.8 126.29 -0.85C126.54 -0.87 126.82 -0.88 127.13 -0.89C128.85 -0.91 130.7 -0.88 132.63 -0.8C134.13 -0.71 135.33 -0.78 136.91 -0.65C137.1 -0.62 137.26 -0.66 137.43 -0.67C137.89 -0.71 138.45 -0.72 139.08 -0.7C139.71 -0.67 140.38 -0.61 141.04 -0.53C141.86 -0.76 143.63 -0.49 144.94 -0.47C145.34 -0.35 144.88 -0.37 144.86 -0.33C144.84 -0.3 144.86 -0.33 144.7 -0.35C143.39 -0.18 141.61 -0.14 139.59 -0.25C139.21 -0.25 138.86 -0.24 138.52 -0.22C138.02 -0.2 137.44 -0.2 136.83 -0.23C136.16 -0.25 135.55 -0.24 135.02 -0.2C134.72 -0.2 134.46 -0.18 134.27 -0.15C134.09 -0.11 133.98 -0.06 133.95 0C134.16 0.05 134.38 0.09 134.62 0.13C135.87 0.28 137.11 0.34 138.11 0.31C139.84 0.24 141.91 0.3 143.75 0.28C144.99 0.27 146.32 0.3 147.7 0.36C147.7 0.36 147.67 0.42 147.66 0.43C147.83 0.45 148 0.47 148.17 0.49C148.17 0.49 148.17 0.49 148.18 0.46C148.11 0.43 148 0.41 147.89 0.39L147.48 0.34C147.76 0.32 148.02 0.28 148.31 0.31C148.92 0.35 149.5 0.37 150.03 0.36C150.55 0.36 151 0.32 151.35 0.26C151.97 0.19 152.74 0.15 153.61 0.16C154.28 0.15 154.93 0.13 155.54 0.11C155.54 0.11 155.58 0.04 155.88 0C155.6 -0.04 155.31 -0.08 155.02 -0.1C153.77 -0.17 152.52 -0.23 151.29 -0.27C150.84 -0.28 150.42 -0.27 150.03 -0.25C148.95 -0.23 147.73 -0.26 146.46 -0.34C146.46 -0.34 146.21 -0.38 146.08 -0.39C146.44 -0.54 147.67 -0.39 148.17 -0.49C148.47 -0.49 149.01 -0.48 148.99 -0.5C148.95 -0.54 148.94 -0.57 148.98 -0.6C149.01 -0.62 149.08 -0.65 149.18 -0.66C149.28 -0.68 149.4 -0.68 149.55 -0.68C149.7 -0.68 149.87 -0.68 150.03 -0.66C151.44 -0.57 152.76 -0.55 153.92 -0.59C154.36 -0.59 154.86 -0.56 155.29 -0.56C155.56 -0.55 155.81 -0.55 156.01 -0.57C157.07 -0.69 158.49 -0.7 160.06 -0.59C160.82 -0.56 161.53 -0.55 162.15 -0.58C162.6 -0.58 162.78 -0.5 163.1 -0.46L164.44 -0.38L162.72 -0.28C163.09 -0.04 163.38 0.04 163.98 0.05C164.86 0.07 165.71 0.08 166.54 0.08C167.15 0.08 167.65 0.03 168.48 0.12C168.63 0.13 168.77 0.14 168.88 0.13C169.85 0.05 171.02 0.03 172.3 0.08C172.97 -0.07 174.1 0.08 175.15 0.19C175.49 0.08 174.87 0.03 174.51 -0.04C175.38 -0.03 176.27 -0.04 177.17 -0.02C177.44 -0.03 177.76 -0.02 178.08 0.01C178.41 0.03 178.74 0.07 179.05 0.13C179.2 0.16 179.38 0.19 179.56 0.2C179.74 0.21 179.89 0.21 179.99 0.19C180.46 0.14 181.22 0.19 181.61 0.1C181.74 0.08 181.94 0.08 182.16 0.1C182.38 0.11 182.61 0.14 182.81 0.18C182.59 0.19 182.4 0.21 182.24 0.24C181.64 0.33 181.86 0.48 182.61 0.69C183.77 0.68 184.96 0.68 186.03 0.64C186.63 0.6 187.36 0.61 188.15 0.67C188.94 0.73 189.74 0.83 190.48 0.96C190.75 1.02 191.05 1.05 191.33 1.06C191.62 1.08 191.85 1.07 192 1.03C192.09 0.99 192.12 0.95 192.08 0.89L191.32 0.8C191.32 0.8 191.35 0.75 191.36 0.74L192.45 0.73C193.03 0.73 193.63 0.74 194.17 0.74C194.97 0.71 195.89 0.73 196.86 0.79C197.75 0.85 198.63 0.89 199.49 0.92C200.32 0.95 200.92 0.85 201.71 0.84C202.3 0.83 202.96 0.84 203.65 0.87C204.84 0.94 205.94 0.94 206.83 0.88C207.88 1.23 208.39 1.28 209.36 1.19L209.82 1.16L209.94 1.24L210.29 1.22C210.94 1.2 211.6 1.19 212.28 1.18C213.22 1.22 214.25 1.3 215.24 1.44C215.43 1.46 215.69 1.54 215.86 1.6C216.02 1.67 216.39 1.86 216.65 1.98C216.36 2.07 216.04 2.15 215.81 2.26C215.79 2.27 215.79 2.29 215.82 2.32C215.84 2.34 215.9 2.36 215.97 2.39C216.04 2.41 216.13 2.43 216.23 2.45C216.33 2.47 216.44 2.48 216.55 2.49C216.76 2.51 216.97 2.53 217.17 2.53C218.15 2.54 219.08 2.53 219.96 2.51C220.29 2.47 220.73 2.47 221.22 2.5C221.71 2.53 222.22 2.59 222.67 2.68C223.83 2.63 225.17 2.64 226.61 2.73C228.13 2.68 229.97 2.78 231.39 2.67C231.36 2.72 231.5 2.82 231.71 2.87C232.03 2.96 232.4 3.04 232.79 3.1L235.8 3.24C235.91 3.31 236.05 3.38 236.22 3.45C236.33 3.5 236.53 3.55 236.77 3.59C237.01 3.64 237.28 3.66 237.51 3.67C238.11 3.69 238.61 3.64 239.32 3.75C238.22 3.86 236.74 3.84 235.14 3.71C233.64 3.61 232.19 3.56 230.86 3.56C230.42 3.56 229.84 3.57 229.7 3.63C229.4 3.8 228.6 3.77 227.67 3.74C226.94 3.71 226.27 3.71 225.72 3.75C225.17 3.8 224.76 3.87 224.51 3.98C224.45 4.09 224.6 4.18 225.24 4.24L227.91 4.49C228.3 4.46 228.67 4.42 229.02 4.38C229.61 4.32 230.35 4.3 231.16 4.33C231.97 4.36 232.84 4.43 233.71 4.53C234.15 4.59 234.59 4.64 234.91 4.62C235.19 4.59 235.45 4.55 235.69 4.51C235.74 4.48 235.75 4.45 235.74 4.41C235.91 4.43 236.08 4.45 236.25 4.48C237.57 4.77 238.59 4.77 239.51 4.69C239.76 4.67 239.95 4.63 240.21 4.6C240.46 4.57 240.55 4.54 240.78 4.55C242.62 4.64 243.15 4.32 244.7 4.34C244.78 4.32 244.83 4.3 244.84 4.28C244.85 4.26 244.83 4.23 244.78 4.2C244.67 4.18 244.55 4.15 244.41 4.14C244.28 4.12 244.15 4.11 244.02 4.11C243.31 4.07 242.68 4.08 242.24 4.14C241.93 4.17 241.6 4.19 241.26 4.21L239.7 3.74C241.21 3.78 242.63 3.78 243.94 3.74C244.22 3.71 244.71 3.76 245.11 3.76L248.07 3.81C248.67 3.81 249.19 3.74 250.04 3.91C250.04 3.91 250.6 3.94 250.75 3.91C250.9 3.89 251.56 3.74 251.95 3.65C252.41 3.68 253.05 3.75 253.33 3.73C253.83 3.67 254.26 3.59 254.62 3.5L256.41 3.63C256.4 3.75 256.34 3.86 256.21 3.96C256.07 4.05 256.08 4.17 256.23 4.3C256.37 4.43 256.66 4.56 257.07 4.69L258.83 5.37C259.12 5.42 259.42 5.45 259.71 5.46C259.99 5.47 260.24 5.47 260.42 5.44C261.18 5.36 262.03 5.3 262.78 5.22C263.76 5.34 263.51 5.54 264.22 5.71L266.53 5.99C266.88 6.26 267.24 6.51 266.17 6.6C265.95 6.61 266.1 6.72 265.9 6.76C266.74 6.96 267.65 7.02 268.49 7.14C268.82 7.23 269.1 7.32 269.31 7.41C269.54 7.55 270.01 7.7 270.61 7.81C271.22 7.93 271.91 8.01 272.54 8.03C273.59 8.11 274.67 8.22 275.73 8.36C276.09 8.41 276.46 8.45 276.82 8.47C277.17 8.49 277.51 8.49 277.79 8.48C278.82 8.46 279.68 8.38 280.34 8.25C280.98 8.14 281.85 8.09 282.87 8.1C284.6 8.32 284.95 8.64 286 8.92L284.19 8.96C284.12 9.07 284.24 9.21 283.5 9.21C282.75 9.2 283.13 9.31 283.37 9.42C283.46 9.47 283.62 9.53 283.84 9.57C284.06 9.62 284.32 9.66 284.57 9.68L286.12 9.82C286.67 9.87 287.2 9.89 287.65 9.88C288.1 9.87 288.47 9.83 288.69 9.76C288.96 9.69 289.32 9.65 289.75 9.63C290.31 9.57 290.77 9.49 291.11 9.39L293.3 9.54C293.39 9.44 293.69 9.36 294.14 9.33C294.6 9.31 295.18 9.32 295.8 9.38L297.27 9.47C298.9 9.57 299.26 9.54 299.74 9.25L297.78 8.72C298.06 8.59 298.34 8.46 298.62 8.34C298.13 8.17 297.48 8.01 296.73 7.87C296.03 7.72 295.31 7.58 294.57 7.44C293.78 7.3 292.93 7.18 291.94 7.02C291.77 6.97 291.52 6.88 291.2 6.79C290.88 6.71 290.54 6.62 290.19 6.54C290.26 6.43 290.32 6.33 290.19 6.2C290.8 6.24 291.43 6.31 292.03 6.41C292.62 6.51 293.16 6.62 293.59 6.75C293.67 6.78 293.76 6.8 293.85 6.82C293.96 6.83 294.06 6.85 294.17 6.86C295.24 6.94 295.76 7.1 296.28 7.31C296.63 7.41 297.09 7.5 297.58 7.57C298.53 7.69 299.46 7.84 300.36 7.97C300.64 8.01 300.93 8.05 301.21 8.07C302.16 8.16 303.11 8.28 304.02 8.42C304.32 8.46 304.61 8.51 304.85 8.56C305.1 8.62 305.31 8.68 305.46 8.75C305.23 8.82 305.11 8.91 305.1 9.01C305.06 9.08 305.72 9.21 306.04 9.31C306.35 9.41 305.74 9.36 305.53 9.37C304.67 9.39 304.51 9.43 305.02 9.65C305.2 9.72 305.31 9.79 305.36 9.85C305.41 9.92 305.39 9.98 305.31 10.03C305.19 10.23 304.82 10.4 304.56 10.6C304.96 10.73 305.62 10.88 305.69 11.04C305.73 11.08 305.8 11.12 305.91 11.15C306.01 11.19 306.15 11.23 306.31 11.26C306.72 11.33 307.1 11.41 307.41 11.5C307.72 11.59 307.96 11.69 308.1 11.78C308.15 11.82 308.26 11.86 308.41 11.89C308.57 11.93 308.76 11.96 308.94 11.97C309.15 11.98 309.35 11.98 309.48 11.96C309.61 11.94 309.67 11.91 309.64 11.86C309.65 11.78 309.62 11.7 309.56 11.61C309.59 11.55 309.63 11.49 309.49 11.39C310.13 11.42 310.81 11.5 311.45 11.6C312.09 11.7 312.66 11.83 313.1 11.97C313.59 12.11 314.05 12.27 314.59 12.44C314.48 12.62 314.48 12.62 315.64 12.96L321.77 13.12L323.03 13.34C324.21 13.54 324.48 13.52 325.22 13.42L325.72 13.33C326.76 13.46 327.96 13.61 328.61 13.37C328.82 13.52 328.96 13.58 328.91 13.6C328.6 13.83 328.06 14.03 327.31 14.18C327.12 14.22 326.99 14.28 326.76 14.31C326.05 14.49 325.88 14.77 326.3 15.09C326.51 15.23 326.81 15.38 327.2 15.53C326.63 15.73 325.88 15.89 324.97 16.02C324.2 16.12 323.56 16.25 323.08 16.41C322.64 16.58 322 16.7 321.17 16.77C320.75 16.81 320.44 16.87 320.28 16.96C320.23 17.19 320.34 17.45 320.61 17.71C320.66 17.79 320.81 17.88 321.03 17.97C321.26 18.06 321.56 18.14 321.91 18.21C321.91 18.21 322.08 18.27 322.16 18.31C322.23 18.59 321.97 18.85 321.41 19.05C321.32 19.11 321.13 19.15 320.87 19.17C320.61 19.19 320.28 19.19 319.92 19.17C319.16 19.13 318.45 19.13 317.72 19.11C316.93 19.08 316.23 19.11 315.7 19.17C315.17 19.24 314.83 19.35 314.71 19.5C314.7 19.54 314.68 19.58 314.64 19.61C314.62 19.63 314.6 19.65 314.6 19.68L316.29 20.15L314.38 20.33C314.27 20.52 315.19 20.64 315.64 20.78L315.36 20.86C315 20.9 314.5 20.82 314.06 20.77L313.62 20.71L313.56 20.8C313.29 20.92 312.29 20.79 311.89 20.87C311.5 20.96 311.78 21.06 312.37 21.16C312.78 21.23 313.21 21.29 313.65 21.33C314.08 21.37 314.51 21.38 314.88 21.38C315.1 21.37 315.29 21.35 315.43 21.32C316.22 21.18 317.09 21.06 318.04 20.96C318.77 20.87 319.69 20.83 320.72 20.85C321.02 20.84 321.39 20.86 321.75 20.91C322.11 20.95 322.45 21.02 322.71 21.1L323.24 21.11C323.24 21.11 323.53 21.19 323.49 21.2C323.29 21.43 323.53 21.71 324.17 22.01L323.61 22.03C322.81 22.01 323.32 22.18 323.2 22.27C322.63 22.25 321.9 22.18 321.63 22.29L321.23 22.28L321.38 22.3L321.57 22.26L322.32 22.43C321.97 22.46 321.71 22.49 321.4 22.51C321.22 22.52 321.09 22.54 320.99 22.57C320.9 22.6 320.85 22.64 320.85 22.69C320.85 22.76 320.76 22.82 320.58 22.86C320.4 22.9 320.14 22.92 319.83 22.93C319.45 22.93 319.24 23 319.02 23.03L319.97 23.48C319.97 23.48 319.5 23.42 319.76 23.5L319.79 23.45L320.37 23.56C320.78 23.66 321.07 23.68 321.32 23.61C321.56 23.54 321.51 23.64 321.63 23.61C321.58 23.68 321.32 23.73 321.09 23.77C320.82 23.81 320.52 23.83 320.19 23.85C320.79 24.17 320.81 24.18 319.95 24.26C319.09 24.35 319.39 24.47 318.66 24.49C317.94 24.51 318.76 24.72 319.25 24.76C319.6 24.79 319.97 24.84 320.32 24.89C320.66 24.95 320.99 25.01 321.26 25.09L321.11 25.33C320.9 25.31 320.69 25.28 320.48 25.25C319.78 25.12 319.15 24.99 318.52 25.07L318.82 25.26L316.65 25.15C316.7 25.29 317.03 25.45 317.57 25.59C317.49 25.67 317.44 25.75 317.42 25.84C317.39 25.9 317.17 25.86 317.03 25.87C316.53 25.88 316.13 25.92 315.84 25.99C315.56 26.06 315.41 26.15 315.41 26.27C315.35 26.36 316.12 26.56 316.59 26.55C317.79 26.57 319.08 26.64 320.4 26.76C321.2 26.78 321.32 26.53 322.64 26.7C322.66 26.82 322.5 26.91 322.16 26.97C321.82 27.02 321.32 27.04 320.76 27.02C321.08 27.27 322.87 27.34 322.95 27.61C322.5 27.59 322.03 27.54 321.57 27.48C321.11 27.41 320.68 27.33 320.32 27.23C320.25 27.21 320.15 27.19 320.04 27.17C319.94 27.15 319.82 27.14 319.72 27.13C319.6 27.12 319.5 27.12 319.41 27.13C319.33 27.13 319.26 27.14 319.22 27.16C319.47 27.25 319.74 27.36 320.05 27.47C320.36 27.57 320.44 27.62 320.66 27.64C322.33 27.85 323.13 28.22 324.58 28.46C324.95 28.51 325 28.66 324.67 28.64C324.36 28.63 324.08 28.63 323.85 28.65C323.63 28.67 323.48 28.71 323.42 28.76C323.17 28.82 322.87 28.87 322.52 28.91C324 29.29 325.77 29.63 327.66 29.89C328.02 29.94 328.39 29.98 328.73 29.98C329.78 29.98 330.9 30.01 332.06 30.07C332.47 30.09 332.85 30.09 333.18 30.07C334.26 30.02 335.12 30.12 335.9 30.4L337.19 30.85C337.15 30.92 336.93 31 336.76 31.11L337.77 31.35L345.49 30.8L347.04 31.34L349.26 31.31C349.43 31.32 349.6 31.34 349.76 31.37C350.21 31.53 350.56 31.68 351.05 31.83C351.54 31.98 352.41 32 353.01 32.17C353.62 32.35 354.23 32.35 354.98 32.46C355.05 32.59 354.98 32.72 354.76 32.82C354.7 32.94 354.31 33.01 354.25 33.12C354.26 33.23 354.11 33.33 353.84 33.4C353.56 33.47 353.15 33.51 352.66 33.52C351.27 33.76 349.59 33.93 347.68 34.03C347.51 34.03 347.37 34.05 347.27 34.07C347.17 34.1 347.11 34.13 347.09 34.17C347.09 34.28 346.96 34.37 346.71 34.44C346.47 34.52 346.1 34.56 345.65 34.59C345.53 34.59 345.44 34.6 345.39 34.63C345.22 34.64 345.1 34.67 345.03 34.7C344.96 34.74 344.96 34.78 345.01 34.83C345.07 34.88 345.18 34.93 345.35 34.99C345.51 35.04 345.72 35.08 345.95 35.12C346.28 35.18 346.62 35.24 346.96 35.29C346.94 35.33 346.6 35.33 346.65 35.36C346.79 35.46 346.82 35.55 346.74 35.62C346.67 35.7 346.49 35.76 346.22 35.8L348.06 36.58C349.18 36.69 350.28 36.87 351.15 37.09C351.15 37.13 351.1 37.16 351 37.18C350.91 37.2 350.77 37.22 350.6 37.22C350.15 37.23 349.72 37.26 349.24 37.28C348.94 37.3 348.7 37.32 348.51 37.37C348.33 37.41 348.22 37.47 348.18 37.53L349.26 37.82C348.91 37.89 348.65 37.93 348.42 37.97C348.55 38.06 348.78 38.15 349.08 38.24C349.38 38.33 349.74 38.42 350.15 38.49C350.26 38.5 350.37 38.51 350.48 38.52C350.59 38.53 350.69 38.53 350.77 38.52C351.61 38.42 352.59 38.6 353.54 38.76C354.5 38.93 355.01 39.03 355.72 39.16L357.06 39.18C357.4 39.24 357.71 39.31 357.95 39.39C358.19 39.46 358.37 39.54 358.46 39.62C358.39 39.74 357.75 39.67 357.37 39.69C356.47 39.76 355.28 39.75 354.01 39.64C353.69 39.6 353.37 39.63 353.06 39.64C352.4 39.65 351.76 39.68 351.15 39.71C350.75 39.74 350.38 39.78 350.03 39.83C349.94 39.98 351.4 40.11 350.57 40.18C350.85 40.22 350.96 40.27 351.11 40.25C352.04 40.35 352.96 40.4 353.77 40.39C355.3 40.37 357.05 40.44 358.86 40.6C360.82 40.76 362.69 40.83 364.33 40.8C364.96 40.8 365.66 40.83 366.38 40.9C367.23 40.99 368.07 41.05 368.85 41.07C369.11 41.07 369.4 41.08 369.7 41.11C369.99 41.14 370.28 41.18 370.55 41.24C370.53 41.27 370.27 41.3 370.33 41.32C371.14 41.61 371.47 41.92 372.71 42.21C373.57 42.32 374.55 42.44 375.1 42.3C375.66 42.16 375.46 42.04 374.35 41.68C374.59 41.68 374.88 41.69 375.17 41.73C375.46 41.77 375.73 41.82 375.93 41.88L376.89 42.15L377.75 42.4C377.68 42.53 377.62 42.63 377.56 42.74C377.46 42.85 377.57 42.99 377.87 43.13C378.05 43.2 378.21 43.28 378.34 43.36C378.88 43.67 379.04 43.96 378.79 44.2C378.32 44.54 377.67 44.86 376.84 45.15C375.96 45.43 375.48 45.78 374.76 46.09C374.39 46.22 373.94 46.35 373.42 46.46C372.43 46.7 371.34 46.93 370.35 47.18C369.36 47.42 368.23 47.6 367.13 47.8C365.49 48.05 363.71 48.26 361.81 48.43C360.64 48.58 359.43 48.73 358.34 48.91C357.06 49.11 355.55 49.25 353.86 49.33C352.36 49.43 351.02 49.58 349.87 49.77C349.75 49.79 349.65 49.82 349.59 49.85C349.38 50.04 348.8 50.18 347.93 50.24C347.98 50.3 348.05 50.36 348.13 50.41C348.25 50.48 348.28 50.55 348.2 50.6C348.13 50.66 347.96 50.69 347.72 50.71C347.03 50.76 346.45 50.84 346.02 50.95C345.86 50.98 345.76 51.02 345.73 51.07C345.7 51.12 345.74 51.18 345.85 51.24C345.94 51.31 345.95 51.36 345.87 51.41C345.78 51.45 345.62 51.48 345.39 51.5C344.8 51.56 344.17 51.6 343.51 51.64C342.09 51.72 340.44 51.72 338.66 51.64C338.47 51.61 338.28 51.65 338.06 51.62C336.8 51.53 335.64 51.52 334.7 51.58C333.6 51.61 332.45 51.6 331.29 51.61C329.62 51.61 328.07 51.65 326.7 51.76C325.13 51.66 324.25 51.83 322.93 51.83C321.7 51.85 320.55 51.89 319.46 51.96C317.72 52.05 315.98 52.12 314.25 52.23C312.64 52.28 311.15 52.37 309.82 52.51C309.31 52.57 308.38 52.47 308.03 52.6C307.69 52.73 306.98 52.72 306.42 52.76L304.62 52.87C304.32 52.89 303.98 52.91 303.61 52.92C301.95 52.92 300.79 53.1 299.25 53.13L299.09 53.11C296.34 53.37 293.2 53.51 289.76 53.53C287.75 53.61 285.54 53.61 283.41 53.67C282.9 53.78 281.7 53.64 281.06 53.75C280.42 53.85 279.38 53.78 278.55 53.8C277.73 53.82 276.92 53.86 276.04 53.86C275.28 53.86 274.63 53.91 274.17 54C273.1 54.15 271.8 54.23 270.32 54.26C268.37 54.29 266.52 54.38 264.53 54.36C264.56 54.47 264.44 54.56 264.18 54.63C263.92 54.7 263.53 54.73 263.05 54.74C260.93 54.78 259 54.89 256.84 54.92L256.27 54.92L249.83 54.98C248.09 55 246.42 55.02 244.65 55.03C243.99 54.95 243.97 55.09 243.51 55.06C243.38 54.99 243.23 54.96 243.01 55L242.96 55.08L235.61 55.19C232.73 55.27 229.7 55.3 226.55 55.27C225.8 55.27 225.1 55.3 224.47 55.35C223.88 55.37 223.26 55.37 222.62 55.37C221.76 55.35 220.92 55.34 220.1 55.34C217.95 55.37 215.69 55.35 213.33 55.33C210.97 55.31 209.18 55.35 207.08 55.35C205.66 55.34 204.25 55.33 202.78 55.3C202.07 55.28 201.21 55.2 200.48 55.17C199.75 55.14 199.52 55.14 199.42 55.19C199.1 55.32 198.31 55.23 197.67 55.22C196.43 55.2 196.25 55.15 195.92 54.81L197.44 54.7C197.81 54.66 198.28 54.65 198.8 54.68C199.32 54.7 199.88 54.75 200.41 54.83C200.62 54.86 200.84 54.89 201.05 54.91C201.27 54.92 201.48 54.93 201.67 54.93C203.21 54.91 204.72 54.87 206.2 54.84L206.41 54.82L206.43 54.51C206.23 54.48 206.03 54.46 205.83 54.44L198.42 54.24C196.72 54.19 194.96 54.08 193.29 54.03C191.62 53.99 190.72 53.96 189.43 53.91C188.89 53.89 188.33 53.85 187.77 53.81C187.8 53.78 187.82 53.75 187.82 53.71C187.85 53.66 187.89 53.6 187.65 53.54C187.39 53.47 187.04 53.4 186.67 53.36C186.33 53.33 185.99 53.32 185.68 53.32C184.18 53.29 182.47 53.13 180.9 52.86L180.36 53.04C178.01 52.94 175.63 52.84 173.18 52.75C172.69 52.72 172.17 52.67 171.67 52.6C171.13 52.54 170.64 52.4 170.08 52.32C169.52 52.27 168.96 52.22 168.42 52.19C168.57 52.15 168.76 52.11 169 52.09C169.22 52.08 169.39 52.05 169.47 52C169.55 51.96 169.54 51.9 169.44 51.84C169.27 51.74 169.19 51.64 169.57 51.63C169.92 51.6 170.18 51.55 170.3 51.48C170.42 51.4 170.41 51.31 170.26 51.21C170.2 51.15 170.15 51.09 170.12 51.04L169.97 51.02C169.45 50.81 168.41 50.73 167.66 50.56C167.31 50.52 166.94 50.49 166.62 50.48C165.8 50.45 164.99 50.43 164.14 50.39C163.73 50.36 163.31 50.33 162.89 50.27C162.28 50.2 162.22 50.19 161.87 49.92C162.42 49.92 162.84 49.88 163.09 49.81C163.33 49.73 163.38 49.62 163.21 49.49C162.77 49.21 162.3 48.92 160.28 48.73C160.94 48.72 161.57 48.7 162.18 48.67C162.35 48.66 162.48 48.64 162.55 48.61C162.62 48.58 162.63 48.54 162.57 48.49C162.51 48.44 162.38 48.4 162.21 48.35C162.04 48.31 161.83 48.27 161.61 48.25C160.55 48.09 159.44 47.98 158.4 47.94C157.53 47.93 156.75 47.94 155.73 47.93L154.53 47.79C154.55 47.75 154.38 47.71 154.42 47.69C154.72 47.52 155.06 47.35 155.41 47.17C154.85 47.07 154.38 46.95 154.02 46.82C153.67 46.69 153.47 46.56 153.43 46.45C153.4 46.41 153.4 46.38 153.45 46.36C153.49 46.33 153.58 46.31 153.69 46.3C154 46.27 154.25 46.23 154.4 46.17C154.55 46.11 154.61 46.04 154.57 45.95L153.64 45.64C150.83 45.42 148.07 45.26 145.41 45.16L143.01 45.09C142.72 45.01 142.81 44.97 143.09 44.97C143.36 44.97 144.12 44.99 144.66 45C145.12 45.02 145.53 45.01 145.85 44.97C146.17 44.94 146.38 44.87 146.48 44.79L145.67 44.44C145.71 44.37 145.77 44.28 146.2 44.28C146.5 44.27 146.72 44.24 146.83 44.19C146.93 44.13 146.92 44.06 146.79 43.98C146.77 43.93 146.8 43.88 146.88 43.83C147.52 43.83 148.17 43.83 148.75 43.82C149.02 43.81 149.25 43.79 149.43 43.76C149.6 43.72 149.71 43.67 149.75 43.62C149.77 43.56 149.72 43.5 149.6 43.43C149.48 43.37 149.3 43.3 149.06 43.24C148.14 43.16 147.3 43.16 146.72 43.24C146.52 43.29 146.19 43.33 145.77 43.33C145.36 43.33 144.89 43.3 144.41 43.24C143.87 43.18 143.33 43.15 142.89 43.16C142.45 43.17 142.13 43.23 142 43.31C141.44 43.28 140.95 43.26 140.46 43.22C139.89 43.17 139.35 43.16 138.89 43.18C138.17 43.19 137.39 43.19 136.57 43.16C134.21 43.08 131.85 43.01 129.56 42.97C128.96 42.96 128.43 42.99 127.84 42.97C127.24 42.95 126.77 43 126.02 42.89C125.88 42.88 125.73 42.87 125.6 42.86C125.47 42.86 125.35 42.86 125.25 42.87C123.94 42.96 122.4 42.97 120.72 42.91C118.43 42.89 116.05 42.85 113.75 42.84C113.08 42.85 112.44 42.87 111.85 42.91C111.39 42.93 110.92 42.94 110.43 42.95C110.05 42.96 109.69 42.94 109.76 43.06C109.82 43.18 109.25 43.1 108.93 43.08C107.81 43.02 106.67 42.94 105.51 42.84C104.37 42.74 103.26 42.67 102.23 42.66C101.49 42.65 100.73 42.68 99.78 42.52C99.81 42.45 99.85 42.39 100.06 42.33C99.28 42.15 98.39 42 97.47 41.89C96.55 41.77 95.62 41.7 94.75 41.67L93.56 41.34C93.27 41.3 92.97 41.27 92.68 41.26C92.39 41.24 92.12 41.24 91.89 41.25C91.7 41.25 91.48 41.24 91.26 41.21C91.04 41.18 90.84 41.14 90.69 41.1C90.46 41.04 90.18 40.99 89.89 40.95C89.6 40.92 89.31 40.9 89.04 40.89C88.23 40.86 87.35 40.77 86.51 40.65C86.29 40.58 86.16 40.51 86.12 40.44C86.08 40.37 86.14 40.31 86.3 40.27C86.54 40.2 86.68 40.11 86.71 40C86.73 39.9 86.63 39.78 86.42 39.66C86.32 39.58 86.28 39.51 86.32 39.45C86.36 39.38 86.47 39.33 86.64 39.29C87.3 39.1 87.12 39 86.05 38.68C85.88 38.63 85.67 38.58 85.44 38.54C85.2 38.5 84.96 38.46 84.71 38.44C84.12 38.39 83.54 38.35 82.98 38.33C82.66 38.29 82.34 38.32 81.97 38.3C80.15 38.23 79.89 38.11 79.3 37.84L78.87 37.65C78.07 37.5 77.2 37.37 76.32 37.28C75.44 37.18 74.56 37.13 73.77 37.11C73.45 37.11 73.08 37.09 72.73 37.04C71.56 36.89 70.39 36.79 69.27 36.74C68.58 36.72 67.83 36.64 67.12 36.54C66.41 36.43 65.76 36.29 65.26 36.14C64.81 36 64.22 35.88 63.57 35.79C62.81 35.69 62.74 35.58 63.17 35.5C63.59 35.41 64.3 35.3 64.93 35.21C65.15 35.18 65.28 35.13 65.32 35.07C65.36 35.01 65.3 34.93 65.14 34.86C65.04 34.73 65.02 34.6 65.09 34.49C65.12 34.44 65.1 34.38 65.02 34.33C64.94 34.27 64.8 34.21 64.61 34.15C64.43 34.09 64.2 34.04 63.95 33.99C63.7 33.94 63.42 33.9 63.15 33.88C61.98 33.73 60.84 33.59 59.65 33.49C59.15 33.44 58.65 33.37 58.17 33.3C57.17 33.12 56.11 32.97 55.04 32.87C54.53 32.82 54.03 32.73 53.65 32.63C52.46 32.35 51.36 32.06 50.37 31.76C50.13 31.66 49.82 31.57 49.46 31.49C49.09 31.41 48.68 31.33 48.25 31.27C47.91 31.23 47.62 31.14 47.36 31.07C47.16 30.93 47.14 30.79 47.3 30.68C47.45 30.57 47.78 30.48 48.24 30.44C48.68 30.38 49.1 30.31 49.48 30.24C49.94 30.18 50.48 30.14 51.1 30.13C51.82 30.1 52.36 30.01 52.64 29.88C50.65 29.63 48.76 29.28 47.02 29.36L45.69 29.13C45.74 29.05 45.79 28.97 45.83 28.9C46.15 28.76 46.25 28.6 46.12 28.41C46.02 28.32 46.03 28.24 46.15 28.17C46.27 28.11 46.5 28.06 46.82 28.04C48.69 27.8 50.85 27.64 52.6 27.36C53.15 27.31 53.8 27.29 54.51 27.29C55.2 27.28 55.17 27.15 54.38 27C53.93 26.92 53.48 26.85 53.02 26.78C50.99 26.76 50.17 27.13 47.86 27.03L46.78 26.55C46.49 26.54 46.21 26.54 45.94 26.54L42.07 26.73C41.74 26.74 41.49 26.78 41.34 26.83C41.19 26.88 41.14 26.95 41.21 27.03C41.24 27.13 41.18 27.22 41.05 27.3C40.97 27.35 41.02 27.43 41.2 27.5C41.61 27.67 41.09 27.7 40.76 27.74C40.67 27.75 40.57 27.74 40.47 27.74C40.37 27.73 40.26 27.73 40.15 27.71C40.04 27.7 39.93 27.68 39.84 27.66C39.74 27.64 39.66 27.62 39.59 27.6C39.01 27.43 38.5 27.26 37.93 27.09C38.33 26.92 37.85 26.64 38.49 26.48C38.56 26.45 38.59 26.41 38.57 26.37C38.55 26.33 38.5 26.28 38.4 26.24C38.14 26.12 38.01 26 38.04 25.9C38.06 25.8 38.23 25.71 38.54 25.66L38.57 25.6C37.78 25.39 37.99 25.21 37.68 24.99L36.91 24.85C35.02 24.5 35.01 24.51 33.38 24.52C33.05 24.39 33.47 24.37 33.78 24.36L36.41 24.21C38.13 24.11 39.9 24.05 41.82 24.01C43.74 23.97 45.88 23.85 47.86 23.76C47.96 23.75 48.04 23.74 48.08 23.72C48.13 23.7 48.15 23.68 48.13 23.65C48.05 23.62 47.95 23.59 47.83 23.57C47.71 23.54 47.57 23.52 47.44 23.5C46.8 23.43 46.16 23.38 45.48 23.31L44.23 23.2L43.84 23.05C43.59 22.96 43.42 22.85 43.09 22.78C42.81 22.73 42.51 22.69 42.22 22.67C41.93 22.65 41.66 22.65 41.43 22.66C40.8 22.69 40.23 22.73 39.64 22.77C39.04 22.81 38.71 22.85 38.19 22.87C37.13 22.88 36.11 22.9 35.13 22.94C34.3 23.03 33.54 23.13 32.84 23.26C32.41 23.3 32 23.36 31.26 23.3C30.91 23.24 30.6 23.17 30.4 23.09C30.2 23.01 30.11 22.93 30.16 22.87C30.2 22.82 30.31 22.78 30.48 22.75C30.66 22.73 30.89 22.72 31.16 22.72C31.9 22.71 32.59 22.68 33.21 22.63C34.07 22.54 35.12 22.5 36.3 22.51C36.7 22.53 36.96 22.48 37.31 22.46C37.66 22.44 37.96 22.4 38.35 22.43C39.55 22.51 40.13 22.39 40.86 22.31C41.1 22.28 41.25 22.22 41.29 22.15C41.34 22.08 41.27 22 41.09 21.91C40.76 21.74 40.35 21.57 39.87 21.4C39.63 21.31 39.31 21.23 38.96 21.16C38.6 21.09 38.2 21.04 37.81 21C37.57 20.89 37.44 20.79 37.44 20.7C37.43 20.6 37.55 20.53 37.78 20.47C38.37 20.34 38.89 20.21 40.2 20.28C40.81 20.31 41.4 20.31 41.92 20.29C43.07 20.27 44.41 20.32 45.79 20.45C46.15 20.48 46.5 20.5 46.84 20.51C49.23 20.59 51.52 20.62 53.8 20.65C55.02 20.66 56.24 20.66 57.5 20.7C60.47 20.78 63.17 20.74 66.04 20.76C67.54 20.78 68.88 20.72 70 20.6C70.21 20.56 70.4 20.51 70.55 20.46C69.82 20.32 69 20.21 68.2 20.14C67.39 20.07 66.62 20.04 65.95 20.06C65.58 20.1 65.11 20.1 64.58 20.08C64.05 20.05 63.48 20 62.95 19.91L64.5 19.87C65.53 19.85 66.59 19.84 67.59 19.81C69.18 19.75 70.65 19.67 72.3 19.63C73.63 19.6 74.82 19.52 75.83 19.39C76.56 19.29 77.4 19.23 78.32 19.19C78.98 19.17 78.98 19.17 79.4 18.98C79.06 18.85 78.63 18.83 78.23 18.83C75.8 18.75 73.49 18.74 71.34 18.79C70.26 18.8 69.3 18.85 68.5 18.95C68.31 18.99 67.81 18.97 67.41 18.96C66.16 18.93 64.97 18.94 63.85 18.97C62.29 19.03 60.56 19.01 58.72 18.94C58.37 18.84 58.77 18.85 58.79 18.81C60.22 18.75 61.61 18.68 63.07 18.63C63.47 18.61 63.89 18.6 64.34 18.6C66.01 18.63 67.4 18.54 68.32 18.34C68.37 18.26 68.97 18.27 69.24 18.22C69.37 18.18 69.46 18.12 69.5 18.07C69.11 17.92 68.67 17.92 68.33 17.92C67.35 17.94 66.4 17.97 65.5 18.01C64.66 18.06 63.73 18.07 62.73 18.05C62 18.03 61.37 18.06 60.63 18.05C60.23 18.03 59.81 18.01 59.39 17.97C59.86 17.87 60.5 17.81 61.26 17.79C61.84 17.73 62.56 17.71 62.65 17.55C62.38 17.44 62.08 17.44 61.83 17.45C61.32 17.45 60.83 17.46 60.36 17.47C59.36 17.5 58.28 17.51 57.14 17.47C56.54 17.46 55.97 17.47 55.44 17.48C54.24 17.51 53.09 17.56 51.99 17.59C49.74 17.61 47.69 17.71 45.52 17.76C45.04 17.77 44.61 17.81 43.97 17.74C43.34 17.66 43.31 17.65 43.24 17.61C43.06 17.53 43.01 17.46 43.09 17.41C43.21 17.35 43.46 17.32 43.78 17.32C45.71 17.24 47.55 17.13 49.27 16.98C50.03 16.95 50.69 16.89 51.24 16.8C51.68 16.74 52.19 16.69 52.77 16.68C53.61 16.63 54.49 16.6 55.4 16.58C55.83 16.57 56.19 16.53 56.46 16.48C56.74 16.43 56.93 16.36 57.01 16.27L55.89 15.98C55.72 15.97 55.54 15.96 55.37 15.95L46.1 16.15L45.18 16.16C44.17 16.14 43.93 16.1 42.97 15.77C45.15 15.69 46.86 15.46 47.94 15.1C47.68 15.07 47.42 15.03 47.15 15.01C45.41 14.92 43.76 14.9 42.28 14.94C41.39 14.94 40.49 14.93 39.57 14.93C39.84 14.76 40.86 14.81 41.53 14.78C43.12 14.72 44.52 14.6 45.7 14.42C46.11 14.35 46.62 14.31 47.2 14.29C47.79 14.28 48.28 14.24 48.63 14.17C48.98 14.09 49.18 13.99 49.22 13.87C49.27 13.75 49.39 13.65 49.57 13.55C49.25 13.42 48.74 13.29 48.14 13.19C47.54 13.09 46.89 13.02 46.3 13.01C45.06 12.95 43.77 12.86 42.47 12.74C41.82 12.67 41.18 12.64 40.6 12.63C40.08 12.62 39.5 12.58 38.93 12.5C38.37 12.42 37.85 12.31 37.47 12.19C36.94 12.05 36.46 11.9 35.97 11.75C35.48 11.6 34.92 11.41 34.35 11.22C33.85 11.19 33.36 11.18 32.89 11.17C32.52 11.17 32.1 11.15 31.66 11.11C31.23 11.07 30.8 11 30.43 10.92C30.65 10.84 30.89 10.77 31.15 10.67C30.79 10.55 30.54 10.42 30.39 10.3C30.25 10.18 30.22 10.07 30.31 9.97C30.36 9.88 29.98 9.73 29.85 9.61C29.67 9.51 29.64 9.42 29.75 9.34C29.86 9.27 30.11 9.21 30.47 9.19C30.91 9.15 31.27 9.08 31.53 9C31.62 8.98 31.66 8.95 31.66 8.91C31.66 8.88 31.61 8.84 31.52 8.8C31.43 8.76 31.3 8.72 31.14 8.68C30.98 8.65 30.8 8.62 30.62 8.6C30.05 8.54 29.48 8.5 28.96 8.48C28.05 8.45 27.18 8.44 26.35 8.43C25.43 8.42 24.4 8.35 23.38 8.23C22.47 8.12 21.64 8.01 21.2 7.8C20.75 7.58 20.03 7.59 19.48 7.43C19.79 7.29 20.34 7.19 21.08 7.14C21.56 7.13 21.96 7.08 22.25 7.02C22.55 6.95 22.73 6.86 22.79 6.76L21.12 6.32C19.79 6.11 19.05 6.27 17.61 6.19L19.09 6.03C19.12 6.01 19.14 5.99 19.13 5.97C18.98 5.64 18.75 5.57 17.24 5.39L16.38 5.28L15.03 5.16C14.82 5.09 14.67 5.02 14.6 4.95C14.53 4.89 14.55 4.83 14.65 4.78C14.84 4.7 14.9 4.6 14.82 4.49C14.69 4.41 14.68 4.34 14.79 4.29C14.9 4.24 15.13 4.21 15.43 4.2C15.67 4.2 15.69 4.11 15.82 4.06C15.95 3.99 16.17 3.94 16.47 3.91C16.77 3.88 17.14 3.86 17.56 3.87C18.79 3.88 19.94 3.85 20.99 3.79L20.8 3.77C21.91 3.82 22.94 3.83 23.84 3.79C24.75 3.74 25.92 3.77 26.89 3.74C27.67 3.75 28.27 3.68 28.56 3.55C28.83 3.43 29.83 3.46 30.6 3.48C31.05 3.5 31.49 3.51 31.91 3.5C32.47 3.48 33.17 3.5 33.9 3.58C34.12 3.6 34.33 3.61 34.52 3.61C36.37 3.64 38.21 3.68 40.03 3.7C40.45 3.69 40.94 3.71 41.45 3.76C41.66 3.78 41.87 3.79 42.04 3.79C44.92 3.74 48.16 3.86 50.98 3.79C51.33 3.78 51.7 3.77 52.11 3.78C53.02 3.82 53.81 3.8 54.35 3.71C54.65 3.66 55.03 3.64 55.47 3.63C55.91 3.63 56.4 3.65 56.91 3.69C57.75 3.75 58.53 3.75 59.17 3.71C60.4 3.67 61.71 3.65 63.06 3.66C63.47 3.67 63.84 3.65 64.13 3.61C64.41 3.58 64.61 3.52 64.71 3.45C64.38 3.32 64.01 3.31 63.67 3.32C62.33 3.29 61 3.25 59.68 3.24C58.51 3.2 57.38 3.19 56.31 3.21C55.79 3.22 55.13 3.18 54.48 3.1C53.69 2.99 52.87 2.94 52.2 2.95C51.7 2.95 51.17 2.94 50.62 2.92C50.27 2.89 49.91 2.85 49.58 2.79C49.45 2.76 49.3 2.74 49.16 2.73C49.01 2.71 48.87 2.7 48.73 2.7C48.6 2.69 48.48 2.7 48.38 2.71C48.27 2.71 48.2 2.73 48.15 2.75C47.64 2.92 46.5 2.83 45.53 2.81C44.08 2.53 42.99 2.7 41.63 2.53C41.52 2.52 41.42 2.52 41.32 2.52C41.22 2.51 41.13 2.52 41.06 2.52C38.43 2.62 35.36 2.54 32.59 2.57C32.29 2.58 31.94 2.56 31.57 2.52C29.2 2.28 26.92 2.21 25.18 2.33C24.97 2.34 24.73 2.34 24.47 2.33C23.28 2.23 22.14 2.2 21.15 2.22C19.59 2.21 18.1 2.22 16.52 2.2C15.43 2.16 14.48 2.2 13.75 2.29C13.73 2.33 13.24 2.29 12.87 2.29C12.66 2.19 12.47 2.1 12.26 2.01C12.06 1.91 11.77 1.8 11.39 1.69C11.02 1.59 10.58 1.5 10.1 1.42C9.28 1.32 9.2 1.17 9.77 1.11C11.25 0.94 13.11 0.86 15.22 0.9C16.98 0.9 18.77 0.91 20.56 0.93C21.6 0.94 22.7 0.98 23.71 0.98C24.05 1 24.4 1.02 24.76 1.04C25.2 1.08 25.62 1.1 26.01 1.1C27.26 1.07 28.66 1.1 30.13 1.18C30.67 1.2 31.19 1.21 31.68 1.2C32.84 1.18 34.09 1.19 35.41 1.25C36.23 1.28 37.03 1.3 37.79 1.3C38.06 1.3 38.28 1.28 38.54 1.3C40.82 1.51 42.43 1.36 44.49 1.44C45.48 1.46 46.44 1.46 47.33 1.44C49.08 1.44 50.88 1.46 52.71 1.51C55.14 1.58 57.39 1.55 59.71 1.58C60.17 1.59 60.61 1.59 61.04 1.58C63.1 1.52 65.33 1.54 67.69 1.62C68.23 1.63 68.71 1.61 69.11 1.58C69.5 1.54 69.81 1.47 70 1.39C70.08 1.33 70.03 1.26 69.85 1.18C69.56 1.08 69.23 0.98 68.87 0.89L55.74 0.58C55.18 0.56 54.65 0.55 54.13 0.55C52.59 0.55 51.01 0.53 49.39 0.48C47.79 0.44 46.26 0.44 44.71 0.43C44.25 0.43 43.78 0.42 43.3 0.4C40.06 0.27 36.91 0.2 33.85 0.17C32.57 0.16 31.18 0.1 29.87 0.09C28.56 0.07 26.76 0.06 25.21 0.05L20.4 0.05C19.45 0.05 18.53 0.06 17.61 0.07C16.5 -0.34 16.11 -0.44 14.63 -0.61C14.12 -0.68 13.6 -0.72 13.13 -0.73C11.66 -0.69 9.81 -0.83 8.41 -0.81C7.56 -0.82 6.84 -0.77 6.33 -0.68C5.88 -0.61 5.37 -0.55 4.8 -0.5C3.25 -0.85 3.11 -1.08 4.28 -1.17C4.6 -1.19 5.03 -1.18 5.26 -1.22C5.39 -1.25 5.57 -1.27 5.79 -1.27C6 -1.27 6.24 -1.26 6.49 -1.24C7.28 -1.18 8.02 -1.17 8.64 -1.2C9.22 -1.24 9.93 -1.24 10.7 -1.2C11.27 -1.12 11.77 -1.22 12.26 -1.25C12.75 -1.28 13.15 -1.33 13.92 -1.26C14.06 -1.24 14.2 -1.23 14.33 -1.23C14.46 -1.23 14.57 -1.23 14.66 -1.24C15.48 -1.29 16.47 -1.29 17.53 -1.23C19.16 -1.17 20.69 -1.17 22.07 -1.22C22.89 -1.27 23.59 -1.35 24.15 -1.47C24.3 -1.51 24.52 -1.53 24.8 -1.54C26.18 -1.51 27.69 -1.42 29.21 -1.27C29.79 -1.21 30.36 -1.16 30.92 -1.12C32.07 -1.04 33.19 -1 34.23 -0.99C35.75 -0.99 37.33 -0.96 38.96 -0.9C39.96 -0.87 40.93 -0.86 41.85 -0.87C42.8 -0.87 43.81 -0.85 44.86 -0.79C45.9 -0.75 46.82 -0.77 47.51 -0.86C47.74 -0.91 47.92 -0.97 48.05 -1.04C46.52 -1.25 44.94 -1.36 43.62 -1.34C43.12 -1.35 42.71 -1.34 42.18 -1.42L42.16 -1.39C42.06 -1.38 41.9 -1.37 41.72 -1.38C41.54 -1.39 41.35 -1.42 41.18 -1.45C41.24 -1.56 41.3 -1.66 41.35 -1.73C42.35 -1.72 43.32 -1.72 44.26 -1.73C45.05 -1.75 46.13 -1.57 46.82 -1.64C48.15 -1.55 49 -1.67 50.2 -1.64C51.4 -1.6 52.72 -1.48 53.92 -1.45C54.97 -1.43 55.98 -1.43 56.96 -1.44C57.3 -1.45 57.69 -1.45 58.11 -1.43C58.7 -1.38 59.24 -1.38 59.69 -1.41C60.13 -1.43 60.45 -1.5 60.61 -1.59C60.46 -1.67 60.25 -1.78 60.01 -1.9C60.45 -1.99 61.12 -2.03 61.91 -2.01L63.03 -2.01C63.33 -2.01 63.56 -2.03 63.67 -2.08C63.78 -2.13 63.76 -2.2 63.62 -2.27C61.5 -2.63 61.42 -2.66 59.86 -2.43L57.79 -2.54L57.82 -2.54ZM85.84 -1.56L85.68 -1.58L85.84 -1.56ZM343.97 36.62L343.94 36.68L343.98 36.61L344.32 36.66L344.35 36.62L343.97 36.62ZM293.55 9.79C293.06 9.73 292.57 9.67 292.07 9.61C291.94 9.6 291.82 9.6 291.71 9.6C291.61 9.61 291.53 9.62 291.48 9.64C291.44 9.71 291.71 9.75 291.97 9.78C292.29 9.82 292.61 9.85 292.91 9.86C293.21 9.87 293.47 9.86 293.67 9.83L293.95 9.81L293.55 9.79ZM40.73 26.07C41.06 26.08 41.36 26.08 41.64 26.07C42.9 26.02 44.09 25.94 45.38 25.89C47 25.76 48.86 25.71 50.89 25.74C51.69 25.75 52.36 25.71 52.83 25.62C53.11 25.57 53.47 25.54 53.89 25.53L59.26 25.39C59.6 25.36 59.88 25.31 60.12 25.26C59.65 25.2 59.33 25.16 59.14 25.14C58.75 25.13 58.41 25.15 58.16 25.19C57.89 25.26 57.44 25.29 56.9 25.27C56.34 25.25 55.81 25.24 55.29 25.24C54.3 25.24 53.31 25.26 52.32 25.27C51.94 25.46 50.8 25.37 49.83 25.35L49.08 25.36C46.63 25.46 44.28 25.6 42.06 25.77C41.63 25.8 41.26 25.85 40.96 25.91C40.85 25.96 40.81 26.02 40.86 26.09L40.7 26.07L40.73 26.07ZM150.3 44.35C150.89 44.37 151.51 44.39 152.15 44.43C152.64 44.47 153.11 44.5 153.56 44.51C156.06 44.55 158.67 44.65 161.35 44.8C161.7 44.83 162.03 44.84 162.35 44.84L164.54 44.8C165.23 44.78 165.24 44.75 164.74 44.46C164.32 44.4 163.9 44.35 163.48 44.3C163.22 44.27 162.81 44.22 162.72 44.27C162.13 44.4 161.06 44.31 160.16 44.29C157.56 44.21 154.88 44.11 152.25 44.02C151.7 44 151.16 43.99 150.65 43.99C150.33 43.99 150.04 43.99 149.78 44.02C149.71 44.02 149.65 44.02 149.61 44.03C149.56 44.04 149.53 44.06 149.52 44.07C149.51 44.09 149.52 44.11 149.55 44.13C149.58 44.14 149.63 44.16 149.69 44.18C149.9 44.25 150.15 44.31 150.42 44.37L150.3 44.35ZM169.35 1.51L171.91 1.48C172.22 1.47 172.48 1.43 172.81 1.45C174.56 1.5 176.19 1.49 177.61 1.41C178.1 1.37 178.67 1.37 179.29 1.39C181.18 1.45 182.97 1.45 184.6 1.39C185.66 1.38 186.64 1.35 187.55 1.28C187.62 1.27 187.66 1.25 187.68 1.22C187.69 1.2 187.68 1.17 187.63 1.14C187.62 1.12 187.59 1.1 187.54 1.08C187.49 1.07 187.43 1.05 187.35 1.03C187.27 1.01 187.19 1 187.1 0.98C187.01 0.97 186.91 0.96 186.82 0.96C185.68 0.87 184.6 0.84 183.66 0.87C182.79 0.91 181.85 0.92 180.86 0.9C179.91 0.9 179.27 1.01 178.1 0.92C177.61 0.9 177.17 0.9 176.87 0.95C176.25 1.02 175.4 1.03 174.45 0.96C173.89 0.93 173.35 0.91 172.85 0.92C171.65 0.94 170.51 0.99 169.39 1.04C169.04 1.05 168.67 1.05 168.27 1.04L162.7 0.95C161.36 0.92 160.03 0.89 158.71 0.88C157.64 0.85 156.64 0.86 155.75 0.9C154.8 0.95 153.77 0.97 152.66 0.96C150.95 0.99 149.25 1 147.39 1C146.2 1 144.99 0.99 143.75 0.97C143.12 0.94 142.59 0.96 142.25 1.03C142.05 1.09 141.57 1.04 141.17 1.03C139.04 0.9 137.05 0.87 135.33 0.94C135.11 0.95 134.87 0.96 134.61 0.95C132.95 0.95 131.23 0.93 129.64 0.93C129.22 0.94 128.82 0.96 128.46 0.98C128.5 1.02 128.61 1.06 128.77 1.1C128.93 1.14 129.13 1.17 129.32 1.18C130.83 1.29 132.28 1.35 133.62 1.36C135.86 1.34 138.19 1.37 140.62 1.45C142.49 1.53 144.21 1.51 145.63 1.4C146.73 1.32 148.18 1.35 149.71 1.49C150.36 1.56 151 1.58 151.53 1.57C152.03 1.55 152.62 1.55 153.25 1.58C154.56 1.65 155.83 1.67 157.02 1.67C158.19 1.65 159.28 1.58 160.47 1.57C161.67 1.55 163.49 1.56 164.97 1.52C166.45 1.49 167.91 1.49 169.35 1.51ZM63.18 -1.74C63.31 -1.57 63.79 -1.46 64.31 -1.42C66.08 -1.21 67.84 -1.13 69.28 -1.17C70.06 -1.23 71.09 -1.21 72.19 -1.1C73.46 -0.99 74.65 -0.98 75.54 -1.05C75.76 -1.07 75.93 -1.09 76.03 -1.14C76.05 -1.17 76.09 -1.23 76.1 -1.24C76 -1.27 75.89 -1.3 75.76 -1.32C75.63 -1.34 75.49 -1.36 75.36 -1.37L69.48 -1.57L68.45 -1.61C66.58 -1.72 64.8 -1.77 63.18 -1.74ZM74.75 0.98C75.66 1.26 75.67 1.26 76.14 1.32C78.41 1.59 80.67 1.73 82.67 1.73C83.11 1.73 83.49 1.71 83.77 1.66C83.91 1.65 84 1.63 84.02 1.59C84.04 1.56 83.98 1.52 83.87 1.48L83.14 1.29C81.81 1.2 80.51 1.13 79.23 1.08C77.74 1.02 76.42 1.02 74.87 1L74.75 0.98ZM150.19 43.11C151.04 43.5 151.05 43.49 152.48 43.59C153.48 43.66 154.44 43.7 155.35 43.71C156.46 43.73 157.6 43.75 158.71 43.77C158.98 43.78 159.21 43.77 159.35 43.74C159.5 43.71 159.55 43.66 159.49 43.6C159.34 43.54 159.11 43.47 158.84 43.43C158.57 43.38 158.27 43.34 157.99 43.33L157.38 43.32C156.65 43.3 155.89 43.27 155.18 43.27C154.72 43.28 154.18 43.27 153.62 43.23C153.05 43.19 152.47 43.13 151.92 43.04L150.19 43.11ZM79.31 -1.24C79.54 -1.17 79.8 -1.11 80.08 -1.05C81.17 -0.88 82.32 -0.79 83.31 -0.78C83.78 -0.77 84.21 -0.81 84.69 -0.76C85.54 -0.69 86.37 -0.65 87.13 -0.65C87.13 -0.65 87.34 -0.66 87.41 -0.66L87.56 -0.91C87.2 -0.97 86.82 -1.01 86.45 -1.05C85.2 -1.11 83.98 -1.16 82.75 -1.21C81.53 -1.26 81.1 -1.28 80.3 -1.3C79.94 -1.29 79.61 -1.27 79.31 -1.24ZM52.26 29.2L53.9 29.7C54.43 29.74 54.92 29.75 55.31 29.72C55.69 29.69 55.94 29.63 56.03 29.54C56.16 29.49 56.17 29.43 56.06 29.36C55.95 29.29 55.73 29.22 55.43 29.16C55.15 29.1 54.83 29.03 54.48 28.98C54.14 28.93 53.79 28.89 53.44 28.87L52.26 29.2ZM65.87 26.7C64.8 26.62 63.78 26.58 62.88 26.6C62.32 26.65 61.55 26.63 60.74 26.56C59.27 26.4 57.85 26.36 56.78 26.44C56.78 26.44 56.74 26.5 56.56 26.52C56.38 26.54 57.1 26.59 57.25 26.61C58.41 26.66 59.58 26.69 60.58 26.71C61.21 26.71 61.87 26.72 62.55 26.76C63.5 26.81 64.39 26.82 65.2 26.8C65.2 26.8 65.52 26.79 65.87 26.71L65.87 26.7ZM180.05 0.6C179.54 0.51 178.99 0.43 178.43 0.38C177.88 0.33 177.34 0.3 176.85 0.3C176.47 0.29 176.17 0.32 175.99 0.37C175.8 0.42 175.75 0.49 175.83 0.58C176.21 0.62 176.72 0.69 177 0.72C177.99 0.72 178.83 0.67 180.05 0.6ZM275.65 8.56C275.24 8.48 274.79 8.42 274.35 8.39C273.9 8.35 273.49 8.35 273.15 8.37C272.98 8.37 273.1 8.46 273.07 8.51C273.05 8.52 273.05 8.54 273.07 8.55C273.09 8.57 273.13 8.58 273.18 8.6C273.23 8.61 273.3 8.63 273.37 8.64C273.44 8.65 273.52 8.66 273.59 8.66C274.03 8.69 274.45 8.7 274.81 8.69C275.17 8.67 275.45 8.64 275.64 8.58L275.65 8.56ZM282.05 9.64C281.99 9.6 281.85 9.55 281.67 9.51C281.49 9.47 281.28 9.44 281.06 9.42C280.69 9.42 280.35 9.43 280.06 9.46C279.74 9.48 279.97 9.61 280.4 9.69C280.58 9.72 280.78 9.74 280.97 9.76C281.16 9.77 281.34 9.78 281.5 9.78C281.66 9.77 281.79 9.76 281.89 9.74C281.98 9.72 282.04 9.69 282.05 9.65L282.05 9.64ZM95.94 -0.76C94.99 -0.92 94.25 -0.88 93.44 -0.94C92.63 -1.01 92.43 -1.02 92.54 -0.91C92.65 -0.81 93.2 -0.83 93.55 -0.79C94.02 -0.73 94.49 -0.7 94.91 -0.69C95.34 -0.69 95.69 -0.71 95.94 -0.76ZM295.07 26.34C294.56 26.3 294.06 26.28 293.59 26.26C293.52 26.28 293.48 26.3 293.47 26.32C293.46 26.34 293.47 26.37 293.51 26.4C293.51 26.4 293.83 26.48 294.02 26.5C294.72 26.58 294.75 26.47 295.07 26.34ZM366.6 41.26C366.95 41.37 367.11 41.44 367.38 41.49C367.51 41.51 367.64 41.52 367.76 41.53C367.89 41.54 368 41.54 368.1 41.54C368.22 41.5 368.25 41.46 368.18 41.4C368.18 41.4 367.83 41.3 367.7 41.3C367.32 41.28 366.95 41.26 366.6 41.26ZM79.68 -1.68C78.95 -1.77 78.25 -1.85 77.75 -1.75C78.9 -1.63 78.9 -1.63 79.68 -1.68ZM91.44 -0.65C90.7 -0.84 90.27 -0.86 89.92 -0.84C89.85 -0.83 89.8 -0.82 89.78 -0.8C89.76 -0.78 89.78 -0.76 89.83 -0.74C89.88 -0.72 89.95 -0.7 90.05 -0.68C90.14 -0.66 90.24 -0.65 90.35 -0.64C90.73 -0.64 91.09 -0.64 91.44 -0.65ZM129.17 -0.57C129.19 -0.6 129.21 -0.63 129.02 -0.65C128.97 -0.66 128.91 -0.67 128.85 -0.68C128.79 -0.69 128.73 -0.69 128.67 -0.7C128.67 -0.7 128.65 -0.66 128.64 -0.64L129.17 -0.57ZM155.38 45.62L154.96 45.64L155.14 45.66L155.64 45.68L155.38 45.62ZM303.86 9.21C303.71 9.19 303.55 9.17 303.52 9.21C303.49 9.21 303.47 9.22 303.46 9.23C303.46 9.24 303.47 9.26 303.49 9.27C303.49 9.27 303.71 9.3 303.8 9.31L303.86 9.21ZM279.28 9.52C279.18 9.52 279.08 9.52 279 9.53L278.98 9.56L279.3 9.6L279.28 9.52ZM65.04 17.47C64.92 17.45 64.79 17.44 64.66 17.43L64.5 17.41C64.5 17.41 64.67 17.46 64.77 17.48C64.86 17.49 64.94 17.47 65.04 17.47Z" fill="#DF6951" fill-opacity="1.000000" fill-rule="nonzero"/>
	</g>
</svg>
