<svg width="118.163818" height="153.331772" viewBox="0 0 118.164 153.332" fill="none" xmlns="http://www.w3.org/2000/svg" xmlns:xlink="http://www.w3.org/1999/xlink">
	<desc>
			Created with Pixso.
	</desc>
	<defs/>
	<path id="Vector" d="M71.81 86.84C70.46 87.15 69.13 87.71 67.93 88.5C64.79 90.5 62.96 93.36 63.85 94.88C64.73 96.4 68 96.01 71.14 94.01C72.36 93.25 73.45 92.28 74.33 91.16C74.74 90.61 74.81 89.94 74.52 89.43L73.36 87.46C73.07 86.95 72.46 86.71 71.81 86.84Z" fill="#D5D6DB" fill-opacity="1.000000" fill-rule="nonzero"/>
	<path id="Vector" d="M63.93 59.85C62.94 60.07 61.98 60.48 61.11 61.05C58.83 62.5 57.51 64.57 58.15 65.67C58.79 66.78 61.16 66.5 63.44 65.04C64.32 64.49 65.11 63.79 65.75 62.98C66.05 62.58 66.1 62.09 65.88 61.73L65.05 60.3C64.84 59.93 64.4 59.75 63.93 59.85Z" fill="#D5D6DB" fill-opacity="1.000000" fill-rule="nonzero"/>
	<path id="Vector" d="M51.11 60.98C50.89 60.96 50.66 61.01 50.46 61.14L45.11 64.55C44.66 64.84 44.48 65.38 44.71 65.77C44.76 65.86 44.83 65.94 44.92 66L58.1 75.08L75.93 63.72L51.11 60.98Z" fill="#029BC5" fill-opacity="1.000000" fill-rule="nonzero"/>
	<path id="Vector" d="M107.49 59.69L58.96 90.25L30.25 101.67L15.6 104.58L13.99 101.85L94.89 51.9C97.3 50.4 99.98 49.49 102.67 49.24C103.85 49.14 105.01 49.18 106.13 49.36C107.13 49.51 108.07 49.8 108.93 50.22C109.9 50.7 111.73 50.75 112.33 51.71C112.33 51.7 113.73 56.08 107.49 59.69Z" fill="#E1E6E9" fill-opacity="1.000000" fill-rule="nonzero"/>
	<path id="Vector" d="M59.6 86.2L38.61 119.67C38.34 120.15 38.5 120.67 38.95 120.85C39.23 120.96 39.57 120.92 39.86 120.74L45.2 117.35C46.23 116.69 47.14 115.86 47.88 114.91L88.59 67.04L59.6 86.2Z" fill="#029BC5" fill-opacity="1.000000" fill-rule="nonzero"/>
	<path id="Vector" d="M6.62 85.09C6.27 84.97 5.85 85.03 5.5 85.25L1.09 88.07C0.48 88.45 0.24 89.19 0.55 89.71C0.61 89.81 0.68 89.9 0.77 89.97L13.15 99.88L26.16 91.76L6.62 85.09Z" fill="#029BC5" fill-opacity="1.000000" fill-rule="nonzero"/>
	<path id="Vector" d="M17.3 101.67L10.64 111C10.54 111.14 10.56 111.3 10.69 111.38C10.78 111.43 10.9 111.42 11 111.35L15.13 108.74C15.16 108.72 15.19 108.69 15.22 108.66L24.95 96.83L17.3 101.67Z" fill="#029BC5" fill-opacity="1.000000" fill-rule="nonzero"/>
	<path id="Vector" d="M105.34 49.76C104.18 49.57 102.98 49.53 101.77 49.64C100.59 51.29 99.84 53.15 99.58 55.02C99.56 55.4 99.87 55.67 100.26 55.62C100.38 55.61 100.5 55.57 100.61 55.5L108.22 50.65C107.33 50.22 106.36 49.91 105.34 49.76Z" fill="#029BC5" fill-opacity="1.000000" fill-rule="nonzero"/>
	<path id="Vector" d="M88.76 58.67L93.72 55.53L98.35 63.4L93.38 66.54L88.76 58.67Z" fill="#D5D6DB" fill-opacity="1.000000" fill-rule="nonzero"/>
	<path id="Vector" d="M85.63 61.78C85.03 62.16 84.79 62.89 85.1 63.41L85.59 64.25C85.91 64.75 86.65 64.84 87.24 64.45C87.8 64.07 88.03 63.38 87.76 62.88L87.26 62.03C86.96 61.51 86.23 61.4 85.63 61.78Z" fill="#3A556A" fill-opacity="1.000000" fill-rule="nonzero"/>
	<path id="Vector" d="M81.17 64.55C80.57 64.93 80.33 65.66 80.63 66.18L81.13 67.02C81.45 67.53 82.19 67.62 82.78 67.22C83.34 66.84 83.56 66.15 83.29 65.65L82.8 64.81C82.5 64.29 81.77 64.17 81.17 64.55Z" fill="#3A556A" fill-opacity="1.000000" fill-rule="nonzero"/>
	<path id="Vector" d="M76.7 67.32C76.1 67.7 75.87 68.43 76.17 68.95L76.66 69.79C76.99 70.3 77.72 70.39 78.31 69.99C78.87 69.61 79.1 68.93 78.83 68.42L78.34 67.58C78.03 67.06 77.3 66.94 76.7 67.32Z" fill="#3A556A" fill-opacity="1.000000" fill-rule="nonzero"/>
	<path id="Vector" d="M72.24 70.1C71.64 70.48 71.4 71.2 71.7 71.72L72.2 72.57C72.52 73.07 73.26 73.16 73.85 72.76C74.41 72.39 74.63 71.7 74.36 71.19L73.87 70.35C73.57 69.83 72.84 69.72 72.24 70.1Z" fill="#3A556A" fill-opacity="1.000000" fill-rule="nonzero"/>
	<path id="Vector" d="M67.77 72.87C67.18 73.25 66.94 73.98 67.24 74.5L67.73 75.34C68.04 75.86 68.77 75.97 69.37 75.59C69.96 75.21 70.2 74.49 69.9 73.97L69.41 73.12C69.1 72.6 68.37 72.49 67.77 72.87C67.77 72.87 67.77 72.87 67.77 72.87Z" fill="#3A556A" fill-opacity="1.000000" fill-rule="nonzero"/>
	<path id="Vector" d="M63.31 75.64C62.71 76.02 62.47 76.75 62.78 77.27L63.27 78.11C63.57 78.63 64.3 78.74 64.9 78.37C65.5 77.99 65.74 77.26 65.44 76.74L64.94 75.9C64.64 75.38 63.91 75.26 63.31 75.64C63.31 75.64 63.31 75.64 63.31 75.64Z" fill="#3A556A" fill-opacity="1.000000" fill-rule="nonzero"/>
	<path id="Vector" d="M58.84 78.41C58.25 78.79 58.01 79.52 58.31 80.04L58.8 80.88C59.11 81.4 59.84 81.52 60.44 81.14C61.03 80.76 61.27 80.03 60.97 79.51L60.48 78.67C60.17 78.15 59.44 78.04 58.84 78.41Z" fill="#3A556A" fill-opacity="1.000000" fill-rule="nonzero"/>
	<path id="Vector" d="M54.38 81.19C53.78 81.57 53.54 82.29 53.85 82.81L54.34 83.66C54.64 84.18 55.38 84.29 55.97 83.91C56.57 83.53 56.81 82.8 56.51 82.28L56.01 81.44C55.71 80.92 54.98 80.81 54.38 81.19Z" fill="#3A556A" fill-opacity="1.000000" fill-rule="nonzero"/>
	<path id="Vector" d="M49.92 83.96C49.32 84.34 49.08 85.07 49.38 85.59L49.88 86.43C50.18 86.95 50.91 87.06 51.51 86.68C52.11 86.3 52.34 85.58 52.04 85.06L51.55 84.21C51.25 83.7 50.51 83.58 49.92 83.96Z" fill="#3A556A" fill-opacity="1.000000" fill-rule="nonzero"/>
	<path id="Vector" d="M45.45 86.73C44.85 87.11 44.61 87.84 44.92 88.36L44.92 88.36L45.41 89.2C45.71 89.72 46.45 89.83 47.04 89.45C47.64 89.08 47.88 88.35 47.58 87.83L47.08 86.99C46.78 86.47 46.05 86.35 45.45 86.73Z" fill="#3A556A" fill-opacity="1.000000" fill-rule="nonzero"/>
	<path id="Vector" d="M40.99 89.5C40.39 89.88 40.15 90.61 40.45 91.13L40.45 91.13L40.95 91.97C41.25 92.49 41.98 92.61 42.58 92.23C43.18 91.85 43.41 91.12 43.11 90.6L42.62 89.76C42.32 89.24 41.59 89.13 40.99 89.5Z" fill="#3A556A" fill-opacity="1.000000" fill-rule="nonzero"/>
</svg>
