<svg width="36.000000" height="36.000000" viewBox="0 0 36 36" fill="none" xmlns="http://www.w3.org/2000/svg" xmlns:xlink="http://www.w3.org/1999/xlink">
	<desc>
			Created with Pixso.
	</desc>
	<defs>
		<clipPath id="clip1_199">
			<rect id="leaf 1" width="14.000000" height="14.000000" transform="translate(11.000000 12.000000)" fill="white" fill-opacity="0"/>
		</clipPath>
	</defs>
	<circle id="Ellipse 4" cx="18.000000" cy="18.000000" r="18.000000" fill="#F5F5F5" fill-opacity="1.000000"/>
	<rect id="leaf 1" width="14.000000" height="14.000000" transform="translate(11.000000 12.000000)" fill="#9CA0B0" fill-opacity="0"/>
	<g clip-path="url(#clip1_199)">
		<path id="Vector" d="M24.65 12.15C24.28 12.04 15.26 11.14 12.09 15.42C10.69 17.32 10.66 19.92 12.02 23.15C11.67 23.86 11.37 24.61 11.13 25.4C11.05 25.64 11.19 25.9 11.43 25.97C11.47 25.99 11.52 26 11.56 26C11.76 26 11.94 25.87 12 25.67C14.42 17.87 22.26 14.09 24.67 13.13C24.91 13.04 25.22 12.31 24.65 12.15Z" fill="#84829A" fill-opacity="1.000000" fill-rule="nonzero"/>
		<path id="Vector" d="M13.47 24.12C14.77 24.67 16.08 24.95 17.29 24.95C18.39 24.95 19.4 24.73 20.28 24.27C22.05 23.36 23.13 21.61 23.4 19.21C23.68 16.76 24.03 15.23 24.32 14.29C21.73 15.49 16.16 18.59 13.47 24.12Z" fill="#84829A" fill-opacity="1.000000" fill-rule="nonzero"/>
	</g>
</svg>
