<svg width="36.000000" height="36.000000" viewBox="0 0 36 36" fill="none" xmlns="http://www.w3.org/2000/svg" xmlns:xlink="http://www.w3.org/1999/xlink">
	<desc>
			Created with Pixso.
	</desc>
	<defs>
		<clipPath id="clip1_213">
			<rect id="map 1" width="14.000000" height="14.000000" transform="translate(10.000000 11.000000)" fill="white" fill-opacity="0"/>
		</clipPath>
	</defs>
	<circle id="Ellipse 5" cx="18.000000" cy="18.000000" r="18.000000" fill="#F5F5F5" fill-opacity="1.000000"/>
	<rect id="map 1" width="14.000000" height="14.000000" transform="translate(10.000000 11.000000)" fill="#9CA0B0" fill-opacity="0"/>
	<g clip-path="url(#clip1_213)">
		<path id="Vector" d="M23.5 11C23.42 11 23.34 11.01 23.27 11.05L19.48 12.94L15.2 11.04C15.19 11.04 15.18 11.03 15.18 11.03C15.16 11.02 15.14 11.02 15.12 11.01C15.1 11.01 15.08 11 15.06 11C15.02 11 14.98 11 14.93 11C14.91 11 14.89 11.01 14.87 11.01C14.85 11.02 14.83 11.02 14.82 11.03C14.81 11.03 14.8 11.04 14.79 11.04L10.29 13.04C10.11 13.12 10 13.3 10 13.5L10 24.5C10 24.66 10.08 24.82 10.22 24.91C10.37 25.01 10.54 25.02 10.7 24.95L15 23.04L19.29 24.95C19.3 24.96 19.31 24.95 19.32 24.96C19.44 25.01 19.58 25.01 19.69 24.95C19.7 24.94 19.71 24.95 19.72 24.94L23.72 22.94C23.89 22.86 24 22.68 24 22.5L24 11.5C24 11.22 23.77 11 23.5 11ZM14.5 22.17L11 23.73L11 13.82L14.5 12.26L14.5 22.17ZM19 23.73L15.5 22.17L15.5 12.26L19 13.82L19 23.73ZM23 22.19L20 23.69L20 13.8L23 12.3L23 22.19Z" fill="#84829A" fill-opacity="1.000000" fill-rule="nonzero"/>
	</g>
</svg>
