<svg width="397.190186" height="389.448242" viewBox="0 0 397.19 389.448" fill="none" xmlns="http://www.w3.org/2000/svg" xmlns:xlink="http://www.w3.org/1999/xlink">
	<desc>
			Created with Pixso.
	</desc>
	<defs/>
	<ellipse id="Ellipse 19" rx="126.217819" ry="126.039436" transform="matrix(-4.37114e-08 1 -1 -4.37114e-08 130.185 242.471)" fill="#C4C4C4" fill-opacity="0"/>
	<ellipse id="Ellipse 19" rx="125.717819" ry="125.539436" transform="matrix(-4.37114e-08 1 -1 -4.37114e-08 130.185 242.471)" stroke="#6246E5" stroke-opacity="1.000000" stroke-width="1.000000"/>
	<ellipse id="Ellipse 20" rx="141.164658" ry="140.965149" transform="matrix(-4.37114e-08 1 -1 -4.37114e-08 143.453 232.506)" fill="#C4C4C4" fill-opacity="0"/>
	<ellipse id="Ellipse 20" rx="140.664658" ry="140.465149" transform="matrix(-4.37114e-08 1 -1 -4.37114e-08 143.453 232.506)" stroke="#6246E5" stroke-opacity="1.000000" stroke-width="1.000000"/>
	<ellipse id="Ellipse 21" rx="154.450729" ry="154.232452" transform="matrix(-4.37114e-08 1 -1 -4.37114e-08 154.232 224.203)" fill="#C4C4C4" fill-opacity="0"/>
	<ellipse id="Ellipse 21" rx="153.950729" ry="153.732452" transform="matrix(-4.37114e-08 1 -1 -4.37114e-08 154.232 224.203)" stroke="#6246E5" stroke-opacity="1.000000" stroke-width="1.000000"/>
	<ellipse id="Ellipse 22" rx="166.076065" ry="165.841354" transform="matrix(-4.37114e-08 1 -1 -4.37114e-08 169.988 215.899)" fill="#C4C4C4" fill-opacity="0"/>
	<ellipse id="Ellipse 22" rx="165.576065" ry="165.341354" transform="matrix(-4.37114e-08 1 -1 -4.37114e-08 169.988 215.899)" stroke="#6246E5" stroke-opacity="1.000000" stroke-width="1.000000"/>
	<ellipse id="Ellipse 23" rx="177.286194" ry="177.035645" transform="matrix(-4.37114e-08 1 -1 -4.37114e-08 185.328 208.01)" fill="#C4C4C4" fill-opacity="0"/>
	<ellipse id="Ellipse 23" rx="176.786194" ry="176.535645" transform="matrix(-4.37114e-08 1 -1 -4.37114e-08 185.328 208.01)" stroke="#6246E5" stroke-opacity="1.000000" stroke-width="1.000000"/>
	<ellipse id="Ellipse 24" rx="194.724182" ry="194.448975" transform="matrix(-4.37114e-08 1 -1 -4.37114e-08 202.741 194.724)" fill="#C4C4C4" fill-opacity="0"/>
	<ellipse id="Ellipse 24" rx="194.224182" ry="193.948975" transform="matrix(-4.37114e-08 1 -1 -4.37114e-08 202.741 194.724)" stroke="#6246E5" stroke-opacity="1.000000" stroke-width="1.000000"/>
</svg>
