<svg width="153.000000" height="166.000000" viewBox="0 0 153 166" fill="none" xmlns="http://www.w3.org/2000/svg" xmlns:xlink="http://www.w3.org/1999/xlink">
	<desc>
			Created with Pixso.
	</desc>
	<defs/>
	<path id="+" d="M11.55 151.61L7.19 151.61L7.19 147.04L5.19 147.04L5.19 151.61L0.83 151.61L0.83 153.49L5.19 153.49L5.19 158.43L7.19 158.43L7.19 153.49L11.55 153.49L11.55 151.61Z" fill="#E5E5E5" fill-opacity="1.000000" fill-rule="evenodd"/>
	<path id="+" d="M46.55 116.61L42.19 116.61L42.19 112.04L40.19 112.04L40.19 116.61L35.83 116.61L35.83 118.49L40.19 118.49L40.19 123.43L42.19 123.43L42.19 118.49L46.55 118.49L46.55 116.61Z" fill="#E5E5E5" fill-opacity="1.000000" fill-rule="evenodd"/>
	<path id="+" d="M81.55 11.61L77.19 11.61L77.19 7.04L75.19 7.04L75.19 11.61L70.83 11.61L70.83 13.49L75.19 13.49L75.19 18.43L77.19 18.43L77.19 13.49L81.55 13.49L81.55 11.61Z" fill="#E5E5E5" fill-opacity="1.000000" fill-rule="evenodd"/>
	<path id="+" d="M81.55 46.61L77.19 46.61L77.19 42.04L75.19 42.04L75.19 46.61L70.83 46.61L70.83 48.49L75.19 48.49L75.19 53.43L77.19 53.43L77.19 48.49L81.55 48.49L81.55 46.61Z" fill="#E5E5E5" fill-opacity="1.000000" fill-rule="evenodd"/>
	<path id="+" d="M81.55 81.61L77.19 81.61L77.19 77.04L75.19 77.04L75.19 81.61L70.83 81.61L70.83 83.49L75.19 83.49L75.19 88.43L77.19 88.43L77.19 83.49L81.55 83.49L81.55 81.61Z" fill="#6246E5" fill-opacity="1.000000" fill-rule="evenodd"/>
	<path id="+" d="M81.55 116.61L77.19 116.61L77.19 112.04L75.19 112.04L75.19 116.61L70.83 116.61L70.83 118.49L75.19 118.49L75.19 123.43L77.19 123.43L77.19 118.49L81.55 118.49L81.55 116.61Z" fill="#E5E5E5" fill-opacity="1.000000" fill-rule="evenodd"/>
	<path id="+" d="M81.55 151.61L77.19 151.61L77.19 147.04L75.19 147.04L75.19 151.61L70.83 151.61L70.83 153.49L75.19 153.49L75.19 158.43L77.19 158.43L77.19 153.49L81.55 153.49L81.55 151.61Z" fill="#E5E5E5" fill-opacity="1.000000" fill-rule="evenodd"/>
	<path id="+" d="M116.55 11.61L112.19 11.61L112.19 7.04L110.19 7.04L110.19 11.61L105.83 11.61L105.83 13.49L110.19 13.49L110.19 18.43L112.19 18.43L112.19 13.49L116.55 13.49L116.55 11.61Z" fill="#E5E5E5" fill-opacity="1.000000" fill-rule="evenodd"/>
	<path id="+" d="M116.55 46.61L112.19 46.61L112.19 42.04L110.19 42.04L110.19 46.61L105.83 46.61L105.83 48.49L110.19 48.49L110.19 53.43L112.19 53.43L112.19 48.49L116.55 48.49L116.55 46.61Z" fill="#E5E5E5" fill-opacity="1.000000" fill-rule="evenodd"/>
	<path id="+" d="M116.55 81.61L112.19 81.61L112.19 77.04L110.19 77.04L110.19 81.61L105.83 81.61L105.83 83.49L110.19 83.49L110.19 88.43L112.19 88.43L112.19 83.49L116.55 83.49L116.55 81.61Z" fill="#E5E5E5" fill-opacity="1.000000" fill-rule="evenodd"/>
	<path id="+" d="M116.55 116.61L112.19 116.61L112.19 112.04L110.19 112.04L110.19 116.61L105.83 116.61L105.83 118.49L110.19 118.49L110.19 123.43L112.19 123.43L112.19 118.49L116.55 118.49L116.55 116.61Z" fill="#E5E5E5" fill-opacity="1.000000" fill-rule="evenodd"/>
	<path id="+" d="M116.55 151.61L112.19 151.61L112.19 147.04L110.19 147.04L110.19 151.61L105.83 151.61L105.83 153.49L110.19 153.49L110.19 158.43L112.19 158.43L112.19 153.49L116.55 153.49L116.55 151.61Z" fill="#E5E5E5" fill-opacity="1.000000" fill-rule="evenodd"/>
	<path id="+" d="M151.55 11.61L147.19 11.61L147.19 7.04L145.19 7.04L145.19 11.61L140.83 11.61L140.83 13.49L145.19 13.49L145.19 18.43L147.19 18.43L147.19 13.49L151.55 13.49L151.55 11.61Z" fill="#FF7152" fill-opacity="1.000000" fill-rule="evenodd"/>
	<path id="+" d="M151.55 46.61L147.19 46.61L147.19 42.04L145.19 42.04L145.19 46.61L140.83 46.61L140.83 48.49L145.19 48.49L145.19 53.43L147.19 53.43L147.19 48.49L151.55 48.49L151.55 46.61Z" fill="#E5E5E5" fill-opacity="1.000000" fill-rule="evenodd"/>
	<path id="+" d="M151.55 81.61L147.19 81.61L147.19 77.04L145.19 77.04L145.19 81.61L140.83 81.61L140.83 83.49L145.19 83.49L145.19 88.43L147.19 88.43L147.19 83.49L151.55 83.49L151.55 81.61Z" fill="#E5E5E5" fill-opacity="1.000000" fill-rule="evenodd"/>
	<path id="+" d="M151.55 116.61L147.19 116.61L147.19 112.04L145.19 112.04L145.19 116.61L140.83 116.61L140.83 118.49L145.19 118.49L145.19 123.43L147.19 123.43L147.19 118.49L151.55 118.49L151.55 116.61Z" fill="#E5E5E5" fill-opacity="1.000000" fill-rule="evenodd"/>
	<path id="+" d="M151.55 151.61L147.19 151.61L147.19 147.04L145.19 147.04L145.19 151.61L140.83 151.61L140.83 153.49L145.19 153.49L145.19 158.43L147.19 158.43L147.19 153.49L151.55 153.49L151.55 151.61Z" fill="#E5E5E5" fill-opacity="1.000000" fill-rule="evenodd"/>
</svg>
