<svg width="84.000000" height="73.000000" viewBox="0 0 84 73" fill="none" xmlns="http://www.w3.org/2000/svg" xmlns:xlink="http://www.w3.org/1999/xlink">
	<desc>
			Created with Pixso.
	</desc>
	<defs/>
	<path id="Rectangle 160" d="M47.45 73L79 73C81.76 73 84 70.76 84 68L84 28.8C84 23.28 79.52 18.8 74 18.8L34.45 18.8C31.69 18.8 29.45 21.04 29.45 23.8L29.45 55C29.45 64.94 37.51 73 47.45 73Z" fill="#FFF1DA" fill-opacity="1.000000" fill-rule="evenodd"/>
	<path id="Vector" d="M54.54 30.8L54.54 24.5C54.54 23.26 53.55 22.26 52.33 22.26L49.96 22.26C49.01 22.26 48.16 21.64 47.87 20.73C47.53 19.71 47.13 18.72 46.66 17.78C46.23 16.91 46.39 15.87 47.07 15.19L48.75 13.48C49.61 12.61 49.61 11.19 48.75 10.32L44.36 5.87C43.49 4.99 42.1 4.99 41.24 5.87L39.55 7.57C38.88 8.25 37.85 8.42 37 7.99C36.07 7.51 35.1 7.1 34.09 6.76C33.19 6.46 32.58 5.6 32.58 4.64L32.58 2.23C32.58 1 31.59 0 30.37 0L24.16 0C22.94 0 21.96 1 21.96 2.23L21.96 4.64C21.96 5.6 21.35 6.46 20.44 6.76C19.44 7.1 18.47 7.51 17.53 7.99C16.68 8.42 15.65 8.25 14.98 7.57L13.3 5.87C12.44 4.99 11.04 4.99 10.18 5.87L5.79 10.32C4.92 11.19 4.92 12.61 5.79 13.48L7.47 15.19C8.14 15.87 8.3 16.91 7.88 17.78C7.41 18.72 7 19.71 6.67 20.73C6.46 21.37 5.98 21.87 5.38 22.11C5.13 22.21 4.97 22.37 4.69 22.37L2.31 22.37C1.09 22.37 0.1 23.37 0.1 24.61L0.1 30.69C0.1 31.92 1.09 32.92 2.31 32.92L4.69 32.92C5.64 32.92 6.48 33.65 6.78 34.57C7.11 35.58 7.52 36.57 7.99 37.52C8.41 38.38 8.25 39.42 7.58 40.1L6.01 41.81C5.14 42.68 5.14 44.1 6.01 44.97L10.18 49.2C11.04 50.08 12.44 50.08 13.3 49.2L14.98 47.5C15.65 46.82 16.68 46.65 17.53 47.08C18.47 47.56 19.66 48.08 20.66 48.42C21.57 48.72 22.17 49.58 22.17 50.54L22.17 52.95C22.17 54.19 23.16 55.19 24.38 55.19L30.27 55.19C31.48 55.19 32.47 54.19 32.47 52.95L32.47 50.54C32.47 50.26 32.63 50.1 32.73 49.84C32.96 49.23 33.45 48.74 34.09 48.53C35.1 48.19 36.07 47.78 37 47.31C37.85 46.87 38.88 47.04 39.55 47.72L41.24 49.43C42.1 50.3 43.49 50.3 44.36 49.43L48.75 44.97C49.61 44.1 49.61 42.68 48.75 41.81L47.07 40.1C46.4 39.42 46.23 38.38 46.66 37.52C47.13 36.57 47.53 35.58 47.87 34.57C48.16 33.65 49.01 33.03 49.96 33.03L52.33 33.03C53.55 33.03 54.54 32.03 54.54 30.8Z" fill="#B6C4CF" fill-opacity="1.000000" fill-rule="nonzero"/>
	<path id="Vector" d="M32.73 49.84C32.63 50.1 32.58 50.37 32.58 50.65L32.58 53.06C32.58 54.3 31.59 55.3 30.37 55.3L24.16 55.3C22.94 55.3 21.95 54.3 21.95 53.06L21.95 50.65C21.95 49.69 21.35 48.83 20.44 48.53C19.44 48.19 18.47 47.78 17.53 47.31C16.68 46.87 15.65 47.04 14.98 47.72L13.3 49.43C12.44 50.3 11.04 50.3 10.18 49.43L5.79 44.97C4.92 44.1 4.92 42.68 5.79 41.81L7.47 40.1C8.14 39.42 8.3 38.38 7.88 37.52C7.41 36.57 7 35.58 6.67 34.57C6.37 33.65 5.53 33.03 4.58 33.03L2.2 33.03C0.98 33.03 0 32.03 0 30.8L0 24.5C0 23.26 0.98 22.26 2.2 22.26L4.58 22.26C4.86 22.26 5.13 22.21 5.37 22.11C5.37 22.25 5.37 22.39 5.37 22.53C5.37 37.62 17.44 49.85 32.32 49.85C32.45 49.85 32.59 49.85 32.73 49.84Z" fill="#9FACBA" fill-opacity="1.000000" fill-rule="nonzero"/>
	<path id="Vector" d="M45.38 27.65C45.38 37.79 37.27 46.01 27.27 46.01C17.27 46.01 9.16 37.79 9.16 27.65C9.16 17.51 17.27 9.29 27.27 9.29C37.27 9.29 45.38 17.51 45.38 27.65Z" fill="#9FACBA" fill-opacity="1.000000" fill-rule="evenodd"/>
	<path id="Vector" d="M41.54 27.65C41.54 35.64 35.15 42.11 27.27 42.11C19.39 42.11 13 35.64 13 27.65C13 19.66 19.39 13.18 27.27 13.18C35.15 13.18 41.54 19.66 41.54 27.65Z" fill="#F8F7F7" fill-opacity="1.000000" fill-rule="evenodd"/>
</svg>
