<svg width="113.49" height="77.06" viewBox="24.6 41.9 113.49 79.06" fill="none" xmlns="http://www.w3.org/2000/svg" xmlns:xlink="http://www.w3.org/1999/xlink">
	<desc>
		Created with Pixso.
	</desc>
	<defs/>
	<path id="Rectangle 158" d="M65.59 90.9L92.59 90.9C95.35 90.9 97.59 88.66 97.59 85.9L97.59 51.9C97.59 46.38 93.11 41.9 87.59 41.9L52.59 41.9C49.82 41.9 47.59 44.14 47.59 46.9L47.59 72.9C47.59 82.84 55.64 90.9 65.59 90.9Z" fill="#FFF1DA" fill-opacity="1.000000" fill-rule="evenodd"/>
	<path id="Vector" d="M96.17 86.84C94.81 87.15 93.49 87.71 92.28 88.5C89.14 90.5 87.31 93.36 88.2 94.88C89.09 96.4 92.35 96.01 95.49 94.01C96.72 93.25 97.8 92.28 98.68 91.16C99.09 90.61 99.17 89.94 98.87 89.43L97.72 87.46C97.43 86.95 96.82 86.71 96.17 86.84Z" fill="#D5D6DB" fill-opacity="1.000000" fill-rule="nonzero"/>
	<path id="Vector" d="M88.28 59.85C87.3 60.07 86.34 60.48 85.46 61.05C83.19 62.5 81.86 64.57 82.5 65.67C83.15 66.78 85.51 66.49 87.79 65.04C88.68 64.49 89.46 63.79 90.1 62.98C90.4 62.58 90.45 62.09 90.24 61.73L89.41 60.3C89.19 59.93 88.75 59.75 88.28 59.85Z" fill="#D5D6DB" fill-opacity="1.000000" fill-rule="nonzero"/>
	<path id="Vector" d="M75.47 60.98C75.25 60.96 75.02 61.01 74.81 61.14L69.46 64.55C69.02 64.84 68.84 65.38 69.06 65.77C69.12 65.86 69.19 65.94 69.27 66L82.46 75.08L100.29 63.72L75.47 60.98Z" fill="#029BC5" fill-opacity="1.000000" fill-rule="nonzero"/>
	<path id="Vector" d="M131.85 59.69L83.31 90.25L54.6 101.67L39.96 104.58L38.35 101.85L119.24 51.9C121.65 50.4 124.34 49.49 127.03 49.24C128.2 49.14 129.37 49.18 130.49 49.36C131.48 49.51 132.42 49.8 133.29 50.22C134.25 50.7 136.09 50.75 136.68 51.71C136.68 51.7 138.09 56.08 131.85 59.69Z" fill="#E1E6E9" fill-opacity="1.000000" fill-rule="nonzero"/>
	<path id="Vector" d="M83.96 86.2L62.96 119.67C62.7 120.15 62.85 120.67 63.31 120.85C63.59 120.96 63.93 120.92 64.21 120.74L69.56 117.35C70.59 116.69 71.5 115.86 72.23 114.91L112.95 67.04L83.96 86.2Z" fill="#029BC5" fill-opacity="1.000000" fill-rule="nonzero"/>
	<path id="Vector" d="M30.98 85.09C30.63 84.97 30.21 85.03 29.86 85.25L25.44 88.07C24.84 88.45 24.6 89.19 24.9 89.71C24.96 89.81 25.04 89.9 25.13 89.97L37.51 99.88L50.52 91.76L30.98 85.09Z" fill="#029BC5" fill-opacity="1.000000" fill-rule="nonzero"/>
	<path id="Vector" d="M41.65 101.67L34.99 111C34.9 111.14 34.92 111.3 35.04 111.38C35.14 111.43 35.26 111.42 35.36 111.35L39.49 108.74C39.52 108.72 39.55 108.69 39.57 108.66L49.31 96.83L41.65 101.67Z" fill="#029BC5" fill-opacity="1.000000" fill-rule="nonzero"/>
	<path id="Vector" d="M129.69 49.76C128.54 49.57 127.34 49.53 126.13 49.64C124.95 51.29 124.19 53.15 123.94 55.02C123.92 55.4 124.22 55.67 124.62 55.62C124.74 55.61 124.86 55.57 124.97 55.5L132.58 50.65C131.69 50.22 130.72 49.91 129.69 49.76Z" fill="#029BC5" fill-opacity="1.000000" fill-rule="nonzero"/>
	<path id="Vector" d="M113.11 58.67L118.08 55.53L122.71 63.4L117.74 66.54L113.11 58.67Z" fill="#D5D6DB" fill-opacity="1.000000" fill-rule="nonzero"/>
	<path id="Vector" d="M109.99 61.78C109.39 62.16 109.15 62.89 109.45 63.41L109.95 64.25C110.27 64.75 111.01 64.84 111.6 64.45C112.16 64.07 112.38 63.38 112.11 62.88L111.62 62.03C111.32 61.51 110.59 61.4 109.99 61.78Z" fill="#3A556A" fill-opacity="1.000000" fill-rule="nonzero"/>
	<path id="Vector" d="M105.52 64.55C104.92 64.93 104.69 65.66 104.99 66.18L105.48 67.02C105.81 67.53 106.54 67.62 107.13 67.22C107.69 66.84 107.92 66.15 107.65 65.65L107.16 64.81C106.85 64.29 106.12 64.17 105.52 64.55Z" fill="#3A556A" fill-opacity="1.000000" fill-rule="nonzero"/>
	<path id="Vector" d="M101.06 67.32C100.46 67.7 100.22 68.43 100.52 68.95L101.02 69.79C101.34 70.3 102.08 70.39 102.67 69.99C103.23 69.61 103.45 68.93 103.18 68.42L102.69 67.58C102.39 67.06 101.66 66.94 101.06 67.32Z" fill="#3A556A" fill-opacity="1.000000" fill-rule="nonzero"/>
	<path id="Vector" d="M96.59 70.1C95.99 70.48 95.76 71.2 96.06 71.72L96.55 72.57C96.88 73.07 97.62 73.16 98.2 72.76C98.76 72.39 98.99 71.7 98.72 71.19L98.23 70.35C97.92 69.83 97.19 69.72 96.59 70.1Z" fill="#3A556A" fill-opacity="1.000000" fill-rule="nonzero"/>
	<path id="Vector" d="M92.13 72.87C91.53 73.25 91.29 73.98 91.6 74.5L92.09 75.34C92.39 75.86 93.12 75.97 93.72 75.59C94.32 75.21 94.56 74.49 94.26 73.97L93.76 73.12C93.46 72.6 92.73 72.49 92.13 72.87C92.13 72.87 92.13 72.87 92.13 72.87Z" fill="#3A556A" fill-opacity="1.000000" fill-rule="nonzero"/>
	<path id="Vector" d="M87.66 75.64C87.07 76.02 86.83 76.75 87.13 77.27L87.62 78.11C87.93 78.63 88.66 78.74 89.26 78.37C89.86 77.99 90.09 77.26 89.79 76.74L89.3 75.9C89 75.38 88.26 75.26 87.67 75.64C87.66 75.64 87.66 75.64 87.66 75.64Z" fill="#3A556A" fill-opacity="1.000000" fill-rule="nonzero"/>
	<path id="Vector" d="M83.2 78.41C82.6 78.79 82.36 79.52 82.67 80.04L83.16 80.88C83.46 81.4 84.2 81.52 84.79 81.14C85.39 80.76 85.63 80.03 85.33 79.51L84.83 78.67C84.53 78.15 83.8 78.04 83.2 78.41Z" fill="#3A556A" fill-opacity="1.000000" fill-rule="nonzero"/>
	<path id="Vector" d="M78.73 81.19C78.14 81.57 77.9 82.29 78.2 82.81L78.69 83.66C79 84.18 79.73 84.29 80.33 83.91C80.93 83.53 81.16 82.8 80.86 82.28L80.37 81.44C80.07 80.92 79.33 80.81 78.73 81.19Z" fill="#3A556A" fill-opacity="1.000000" fill-rule="nonzero"/>
	<path id="Vector" d="M74.27 83.96C73.67 84.34 73.43 85.07 73.74 85.59L74.23 86.43C74.53 86.95 75.27 87.06 75.86 86.68C76.46 86.3 76.7 85.58 76.4 85.06L75.9 84.21C75.6 83.7 74.87 83.58 74.27 83.96Z" fill="#3A556A" fill-opacity="1.000000" fill-rule="nonzero"/>
	<path id="Vector" d="M69.8 86.73C69.21 87.11 68.97 87.84 69.27 88.36L69.27 88.36L69.76 89.2C70.07 89.72 70.8 89.83 71.4 89.45C71.99 89.08 72.23 88.35 71.93 87.83L71.44 86.99C71.13 86.47 70.4 86.35 69.8 86.73Z" fill="#3A556A" fill-opacity="1.000000" fill-rule="nonzero"/>
	<path id="Vector" d="M65.34 89.5C64.74 89.88 64.5 90.61 64.81 91.13L64.81 91.13L65.3 91.97C65.61 92.49 66.34 92.61 66.94 92.23C67.53 91.85 67.77 91.12 67.47 90.6L66.98 89.76C66.67 89.24 65.94 89.13 65.34 89.5Z" fill="#3A556A" fill-opacity="1.000000" fill-rule="nonzero"/>
</svg>