<svg width="114.911987" height="33.994019" viewBox="0 0 114.912 33.994" fill="none" xmlns="http://www.w3.org/2000/svg" xmlns:xlink="http://www.w3.org/1999/xlink">
	<desc>
			Created with Pixso.
	</desc>
	<defs/>
	<path id="Rectangle 24" d="M74.08 28.3L83.58 31.3L91.58 23.3L101.58 30.3L112.08 28.3L107.58 13.8L91.58 18.8L82.58 13.8L73.08 15.3L74.08 28.3Z" fill="#F1A501" fill-opacity="1.000000" fill-rule="nonzero"/>
	<path id="Jadoo" d="M66.73 29.21L66.73 0L60.71 0L60.71 12.92Q60.49 12.51 60.2 12.17Q58.48 10.12 54.31 10.12Q51.72 10.12 49.62 11.14Q47.89 11.98 46.49 13.52Q45.53 14.6 44.88 15.83L44.88 15.83Q43.46 18.51 43.46 21.94Q43.46 25.63 45.04 28.43Q45.67 29.53 46.54 30.49C48.62 32.73 51.28 33.85 54.5 33.85C55.97 33.85 57.26 33.56 58.36 32.98C59.5 32.39 60.32 31.63 60.84 30.68C60.84 31.66 60.92 32.53 61.07 33.3L66.92 33.3C66.79 32.07 66.73 30.71 66.73 29.21ZM0 23.36L0 21.2L6.11 20.1L6.11 23.09C6.14 24.71 6.56 25.94 7.35 26.77C8.18 27.56 9.27 27.96 10.62 27.96Q12 27.96 12.98 27.33L12.98 27.33Q13.4 27.06 13.75 26.68Q13.91 26.5 14.06 26.3L14.06 26.3L14.06 26.3Q14.95 25.09 14.95 23.23L14.95 0.69L21.29 0.69L21.29 23.23Q21.29 25.81 20.31 27.94L20.31 27.94Q19.58 29.53 18.3 30.86Q17.15 32.07 15.75 32.81L15.75 32.81Q13.52 33.99 10.67 33.99Q6.99 33.99 4.4 32.31Q3.59 31.78 2.89 31.09Q2.16 30.35 1.61 29.48L1.61 29.48L1.61 29.48Q0 26.94 0 23.36ZM22.75 27.14Q22.75 25.16 23.63 23.71Q24.04 23.04 24.64 22.49Q24.75 22.39 24.86 22.29Q26.7 20.71 29.51 20.28L35.08 19.45Q36.14 19.31 36.54 18.72L36.54 18.72Q36.78 18.36 36.78 17.84C36.78 16.98 36.44 16.28 35.77 15.73Q34.8 14.9 32.96 14.9Q31.28 14.9 30.19 15.71L30.19 15.71L30.19 15.71Q30.03 15.82 29.88 15.96C29.15 16.66 28.73 17.54 28.64 18.58L23.21 17.43Q23.29 16.74 23.49 16.08L23.49 16.08L23.49 16.08Q24.14 13.96 26.11 12.23Q26.38 12 26.66 11.79L26.66 11.79L26.66 11.79Q29.13 9.98 32.92 9.98Q37.98 9.98 40.37 12.42C41.96 14.01 42.76 16.06 42.76 18.58L42.76 29.71C42.76 31.06 42.85 32.26 43.04 33.3L37.43 33.3C37.27 32.62 37.2 31.72 37.2 30.59Q36.4 31.83 35.28 32.61Q33.37 33.94 30.53 33.94Q27.75 33.94 25.82 32.67Q25.31 32.34 24.87 31.92Q23.61 30.71 23.1 29.25L23.1 29.25L23.1 29.25Q22.75 28.25 22.75 27.14ZM71.35 13.38Q72.71 12.02 74.34 11.2Q76.79 9.98 79.86 9.98Q82.97 9.98 85.43 11.24Q87.01 12.05 88.32 13.38Q89.58 14.64 90.37 16.15Q91.11 17.55 91.45 19.16C91.9 16.93 92.93 15 94.53 13.38Q95.89 12.02 97.52 11.2Q99.98 9.98 103.04 9.98C106.44 9.98 109.26 11.11 111.5 13.38Q112.76 14.64 113.56 16.15Q114.91 18.71 114.91 21.98Q114.91 25.26 113.56 27.82Q112.76 29.33 111.5 30.59Q110.19 31.91 108.61 32.72Q106.15 33.99 103.04 33.99C99.63 33.99 96.8 32.85 94.53 30.59C92.93 28.96 91.9 27.04 91.45 24.81Q91.11 26.42 90.37 27.82Q89.58 29.33 88.32 30.59Q87.01 31.91 85.43 32.72Q82.97 33.99 79.86 33.99Q76.79 33.99 74.34 32.76Q72.71 31.95 71.35 30.59C69.11 28.32 67.99 25.45 67.99 21.98C67.99 18.52 69.11 15.65 71.35 13.38ZM75.76 26.72C76.9 27.86 78.26 28.42 79.86 28.42C81.45 28.42 82.8 27.86 83.9 26.72C85.04 25.59 85.61 24.01 85.61 21.98C85.61 19.96 85.04 18.38 83.9 17.25C82.8 16.11 81.45 15.54 79.86 15.54C78.26 15.54 76.9 16.11 75.76 17.25C74.66 18.38 74.11 19.96 74.11 21.98C74.11 24.01 74.66 25.59 75.76 26.72ZM103.04 28.42C101.44 28.42 100.08 27.86 98.95 26.72C97.84 25.59 97.29 24.01 97.29 21.98C97.29 19.96 97.84 18.38 98.95 17.25C100.08 16.11 101.44 15.54 103.04 15.54C104.63 15.54 105.98 16.11 107.09 17.25C108.22 18.38 108.79 19.96 108.79 21.98C108.79 24.01 108.22 25.59 107.09 26.72C105.98 27.86 104.63 28.42 103.04 28.42ZM51.18 26.68C50.14 25.51 49.62 23.93 49.62 21.94C49.62 19.97 50.14 18.43 51.18 17.29Q51.89 16.55 52.75 16.13Q53.86 15.59 55.23 15.59Q56.65 15.59 57.77 16.17Q58.58 16.58 59.23 17.29C60.28 18.4 60.8 19.93 60.8 21.89C60.8 23.88 60.28 25.46 59.23 26.63C58.19 27.79 56.86 28.38 55.23 28.38C53.58 28.38 52.23 27.81 51.18 26.68ZM34.86 28.57L34.86 28.57L34.86 28.57Q35.12 28.4 35.36 28.19C36.31 27.37 36.78 26.02 36.78 24.15L36.78 23.13L31.68 23.92C29.81 24.19 28.87 25.14 28.87 26.77Q28.87 27.32 29.06 27.78L29.06 27.78Q29.26 28.26 29.65 28.65C30.17 29.14 30.89 29.39 31.81 29.39Q33.6 29.39 34.86 28.57Z" fill="#000000" fill-opacity="1.000000" fill-rule="evenodd"/>
</svg>
